%TF.GenerationSoftware,KiCad,Pcbnew,5.1.6-c6e7f7d~87~ubuntu18.04.1*%
%TF.CreationDate,2020-10-17T23:49:05-07:00*%
%TF.ProjectId,LA_Adapter,4c415f41-6461-4707-9465-722e6b696361,rev?*%
%TF.SameCoordinates,Original*%
%TF.FileFunction,Legend,Bot*%
%TF.FilePolarity,Positive*%
%FSLAX46Y46*%
G04 Gerber Fmt 4.6, Leading zero omitted, Abs format (unit mm)*
G04 Created by KiCad (PCBNEW 5.1.6-c6e7f7d~87~ubuntu18.04.1) date 2020-10-17 23:49:05*
%MOMM*%
%LPD*%
G01*
G04 APERTURE LIST*
%ADD10C,0.150000*%
G04 APERTURE END LIST*
%TO.C,R24*%
D10*
X27392857Y-114022380D02*
X27726190Y-113546190D01*
X27964285Y-114022380D02*
X27964285Y-113022380D01*
X27583333Y-113022380D01*
X27488095Y-113070000D01*
X27440476Y-113117619D01*
X27392857Y-113212857D01*
X27392857Y-113355714D01*
X27440476Y-113450952D01*
X27488095Y-113498571D01*
X27583333Y-113546190D01*
X27964285Y-113546190D01*
X27011904Y-113117619D02*
X26964285Y-113070000D01*
X26869047Y-113022380D01*
X26630952Y-113022380D01*
X26535714Y-113070000D01*
X26488095Y-113117619D01*
X26440476Y-113212857D01*
X26440476Y-113308095D01*
X26488095Y-113450952D01*
X27059523Y-114022380D01*
X26440476Y-114022380D01*
X25583333Y-113355714D02*
X25583333Y-114022380D01*
X25821428Y-112974761D02*
X26059523Y-113689047D01*
X25440476Y-113689047D01*
%TO.C,R23*%
X27392857Y-105222380D02*
X27726190Y-104746190D01*
X27964285Y-105222380D02*
X27964285Y-104222380D01*
X27583333Y-104222380D01*
X27488095Y-104270000D01*
X27440476Y-104317619D01*
X27392857Y-104412857D01*
X27392857Y-104555714D01*
X27440476Y-104650952D01*
X27488095Y-104698571D01*
X27583333Y-104746190D01*
X27964285Y-104746190D01*
X27011904Y-104317619D02*
X26964285Y-104270000D01*
X26869047Y-104222380D01*
X26630952Y-104222380D01*
X26535714Y-104270000D01*
X26488095Y-104317619D01*
X26440476Y-104412857D01*
X26440476Y-104508095D01*
X26488095Y-104650952D01*
X27059523Y-105222380D01*
X26440476Y-105222380D01*
X26107142Y-104222380D02*
X25488095Y-104222380D01*
X25821428Y-104603333D01*
X25678571Y-104603333D01*
X25583333Y-104650952D01*
X25535714Y-104698571D01*
X25488095Y-104793809D01*
X25488095Y-105031904D01*
X25535714Y-105127142D01*
X25583333Y-105174761D01*
X25678571Y-105222380D01*
X25964285Y-105222380D01*
X26059523Y-105174761D01*
X26107142Y-105127142D01*
%TO.C,R22*%
X27392857Y-111522380D02*
X27726190Y-111046190D01*
X27964285Y-111522380D02*
X27964285Y-110522380D01*
X27583333Y-110522380D01*
X27488095Y-110570000D01*
X27440476Y-110617619D01*
X27392857Y-110712857D01*
X27392857Y-110855714D01*
X27440476Y-110950952D01*
X27488095Y-110998571D01*
X27583333Y-111046190D01*
X27964285Y-111046190D01*
X27011904Y-110617619D02*
X26964285Y-110570000D01*
X26869047Y-110522380D01*
X26630952Y-110522380D01*
X26535714Y-110570000D01*
X26488095Y-110617619D01*
X26440476Y-110712857D01*
X26440476Y-110808095D01*
X26488095Y-110950952D01*
X27059523Y-111522380D01*
X26440476Y-111522380D01*
X26059523Y-110617619D02*
X26011904Y-110570000D01*
X25916666Y-110522380D01*
X25678571Y-110522380D01*
X25583333Y-110570000D01*
X25535714Y-110617619D01*
X25488095Y-110712857D01*
X25488095Y-110808095D01*
X25535714Y-110950952D01*
X26107142Y-111522380D01*
X25488095Y-111522380D01*
%TO.C,R21*%
X27392857Y-102722380D02*
X27726190Y-102246190D01*
X27964285Y-102722380D02*
X27964285Y-101722380D01*
X27583333Y-101722380D01*
X27488095Y-101770000D01*
X27440476Y-101817619D01*
X27392857Y-101912857D01*
X27392857Y-102055714D01*
X27440476Y-102150952D01*
X27488095Y-102198571D01*
X27583333Y-102246190D01*
X27964285Y-102246190D01*
X27011904Y-101817619D02*
X26964285Y-101770000D01*
X26869047Y-101722380D01*
X26630952Y-101722380D01*
X26535714Y-101770000D01*
X26488095Y-101817619D01*
X26440476Y-101912857D01*
X26440476Y-102008095D01*
X26488095Y-102150952D01*
X27059523Y-102722380D01*
X26440476Y-102722380D01*
X25488095Y-102722380D02*
X26059523Y-102722380D01*
X25773809Y-102722380D02*
X25773809Y-101722380D01*
X25869047Y-101865238D01*
X25964285Y-101960476D01*
X26059523Y-102008095D01*
%TO.C,R20*%
X27392857Y-109022380D02*
X27726190Y-108546190D01*
X27964285Y-109022380D02*
X27964285Y-108022380D01*
X27583333Y-108022380D01*
X27488095Y-108070000D01*
X27440476Y-108117619D01*
X27392857Y-108212857D01*
X27392857Y-108355714D01*
X27440476Y-108450952D01*
X27488095Y-108498571D01*
X27583333Y-108546190D01*
X27964285Y-108546190D01*
X27011904Y-108117619D02*
X26964285Y-108070000D01*
X26869047Y-108022380D01*
X26630952Y-108022380D01*
X26535714Y-108070000D01*
X26488095Y-108117619D01*
X26440476Y-108212857D01*
X26440476Y-108308095D01*
X26488095Y-108450952D01*
X27059523Y-109022380D01*
X26440476Y-109022380D01*
X25821428Y-108022380D02*
X25726190Y-108022380D01*
X25630952Y-108070000D01*
X25583333Y-108117619D01*
X25535714Y-108212857D01*
X25488095Y-108403333D01*
X25488095Y-108641428D01*
X25535714Y-108831904D01*
X25583333Y-108927142D01*
X25630952Y-108974761D01*
X25726190Y-109022380D01*
X25821428Y-109022380D01*
X25916666Y-108974761D01*
X25964285Y-108927142D01*
X26011904Y-108831904D01*
X26059523Y-108641428D01*
X26059523Y-108403333D01*
X26011904Y-108212857D01*
X25964285Y-108117619D01*
X25916666Y-108070000D01*
X25821428Y-108022380D01*
%TO.C,R19*%
X27392857Y-100222380D02*
X27726190Y-99746190D01*
X27964285Y-100222380D02*
X27964285Y-99222380D01*
X27583333Y-99222380D01*
X27488095Y-99270000D01*
X27440476Y-99317619D01*
X27392857Y-99412857D01*
X27392857Y-99555714D01*
X27440476Y-99650952D01*
X27488095Y-99698571D01*
X27583333Y-99746190D01*
X27964285Y-99746190D01*
X26440476Y-100222380D02*
X27011904Y-100222380D01*
X26726190Y-100222380D02*
X26726190Y-99222380D01*
X26821428Y-99365238D01*
X26916666Y-99460476D01*
X27011904Y-99508095D01*
X25964285Y-100222380D02*
X25773809Y-100222380D01*
X25678571Y-100174761D01*
X25630952Y-100127142D01*
X25535714Y-99984285D01*
X25488095Y-99793809D01*
X25488095Y-99412857D01*
X25535714Y-99317619D01*
X25583333Y-99270000D01*
X25678571Y-99222380D01*
X25869047Y-99222380D01*
X25964285Y-99270000D01*
X26011904Y-99317619D01*
X26059523Y-99412857D01*
X26059523Y-99650952D01*
X26011904Y-99746190D01*
X25964285Y-99793809D01*
X25869047Y-99841428D01*
X25678571Y-99841428D01*
X25583333Y-99793809D01*
X25535714Y-99746190D01*
X25488095Y-99650952D01*
%TO.C,R18*%
X27392857Y-106522380D02*
X27726190Y-106046190D01*
X27964285Y-106522380D02*
X27964285Y-105522380D01*
X27583333Y-105522380D01*
X27488095Y-105570000D01*
X27440476Y-105617619D01*
X27392857Y-105712857D01*
X27392857Y-105855714D01*
X27440476Y-105950952D01*
X27488095Y-105998571D01*
X27583333Y-106046190D01*
X27964285Y-106046190D01*
X26440476Y-106522380D02*
X27011904Y-106522380D01*
X26726190Y-106522380D02*
X26726190Y-105522380D01*
X26821428Y-105665238D01*
X26916666Y-105760476D01*
X27011904Y-105808095D01*
X25869047Y-105950952D02*
X25964285Y-105903333D01*
X26011904Y-105855714D01*
X26059523Y-105760476D01*
X26059523Y-105712857D01*
X26011904Y-105617619D01*
X25964285Y-105570000D01*
X25869047Y-105522380D01*
X25678571Y-105522380D01*
X25583333Y-105570000D01*
X25535714Y-105617619D01*
X25488095Y-105712857D01*
X25488095Y-105760476D01*
X25535714Y-105855714D01*
X25583333Y-105903333D01*
X25678571Y-105950952D01*
X25869047Y-105950952D01*
X25964285Y-105998571D01*
X26011904Y-106046190D01*
X26059523Y-106141428D01*
X26059523Y-106331904D01*
X26011904Y-106427142D01*
X25964285Y-106474761D01*
X25869047Y-106522380D01*
X25678571Y-106522380D01*
X25583333Y-106474761D01*
X25535714Y-106427142D01*
X25488095Y-106331904D01*
X25488095Y-106141428D01*
X25535714Y-106046190D01*
X25583333Y-105998571D01*
X25678571Y-105950952D01*
%TO.C,R17*%
X27392857Y-97722380D02*
X27726190Y-97246190D01*
X27964285Y-97722380D02*
X27964285Y-96722380D01*
X27583333Y-96722380D01*
X27488095Y-96770000D01*
X27440476Y-96817619D01*
X27392857Y-96912857D01*
X27392857Y-97055714D01*
X27440476Y-97150952D01*
X27488095Y-97198571D01*
X27583333Y-97246190D01*
X27964285Y-97246190D01*
X26440476Y-97722380D02*
X27011904Y-97722380D01*
X26726190Y-97722380D02*
X26726190Y-96722380D01*
X26821428Y-96865238D01*
X26916666Y-96960476D01*
X27011904Y-97008095D01*
X26107142Y-96722380D02*
X25440476Y-96722380D01*
X25869047Y-97722380D01*
%TD*%
M02*
