M48
; DRILL file {KiCad 5.1.6-c6e7f7d~87~ubuntu18.04.1} date Sat Oct 17 23:48:51 2020
; FORMAT={-:-/ absolute / inch / decimal}
; #@! TF.CreationDate,2020-10-17T23:48:51-07:00
; #@! TF.GenerationSoftware,Kicad,Pcbnew,5.1.6-c6e7f7d~87~ubuntu18.04.1
FMAT,2
INCH
T1C0.0118
T2C0.0280
%
G90
G05
T1
X0.8445Y-3.7343
X0.8445Y-3.7835
X0.8445Y-3.8327
X0.8445Y-3.8819
X0.8445Y-3.9311
X0.8445Y-3.9803
X0.8445Y-4.0295
X0.8445Y-4.0787
X0.8445Y-4.1299
X0.8445Y-4.1791
X0.8445Y-4.2283
X0.8445Y-4.2776
X0.8445Y-4.3268
X0.8445Y-4.376
X0.8445Y-4.4252
X0.8445Y-4.4744
T2
X1.2152Y-3.9293
X1.2152Y-3.9793
X1.2152Y-4.0293
X1.2152Y-4.0793
X1.2152Y-4.1293
X1.2152Y-4.1793
X1.2152Y-4.2293
X1.2152Y-4.2793
X1.2652Y-3.9293
X1.2652Y-3.9793
X1.2652Y-4.0293
X1.2652Y-4.0793
X1.2652Y-4.1293
X1.2652Y-4.1793
X1.2652Y-4.2293
X1.2652Y-4.2793
T0
M30
