%TF.GenerationSoftware,KiCad,Pcbnew,5.1.6-c6e7f7d~87~ubuntu18.04.1*%
%TF.CreationDate,2020-10-17T23:49:05-07:00*%
%TF.ProjectId,LA_Adapter,4c415f41-6461-4707-9465-722e6b696361,rev?*%
%TF.SameCoordinates,Original*%
%TF.FileFunction,Copper,L2,Bot*%
%TF.FilePolarity,Positive*%
%FSLAX46Y46*%
G04 Gerber Fmt 4.6, Leading zero omitted, Abs format (unit mm)*
G04 Created by KiCad (PCBNEW 5.1.6-c6e7f7d~87~ubuntu18.04.1) date 2020-10-17 23:49:05*
%MOMM*%
%LPD*%
G01*
G04 APERTURE LIST*
%TA.AperFunction,ComponentPad*%
%ADD10C,1.100000*%
%TD*%
%TA.AperFunction,SMDPad,CuDef*%
%ADD11R,5.000000X2.000000*%
%TD*%
%TA.AperFunction,ViaPad*%
%ADD12C,0.600000*%
%TD*%
%TA.AperFunction,Conductor*%
%ADD13C,0.240000*%
%TD*%
G04 APERTURE END LIST*
%TO.P,R24,2*%
%TO.N,/IN7*%
%TA.AperFunction,SMDPad,CuDef*%
G36*
G01*
X26940000Y-112572500D02*
X26940000Y-112227500D01*
G75*
G02*
X27087500Y-112080000I147500J0D01*
G01*
X27382500Y-112080000D01*
G75*
G02*
X27530000Y-112227500I0J-147500D01*
G01*
X27530000Y-112572500D01*
G75*
G02*
X27382500Y-112720000I-147500J0D01*
G01*
X27087500Y-112720000D01*
G75*
G02*
X26940000Y-112572500I0J147500D01*
G01*
G37*
%TD.AperFunction*%
%TO.P,R24,1*%
%TO.N,Net-(C15-Pad1)*%
%TA.AperFunction,SMDPad,CuDef*%
G36*
G01*
X25970000Y-112572500D02*
X25970000Y-112227500D01*
G75*
G02*
X26117500Y-112080000I147500J0D01*
G01*
X26412500Y-112080000D01*
G75*
G02*
X26560000Y-112227500I0J-147500D01*
G01*
X26560000Y-112572500D01*
G75*
G02*
X26412500Y-112720000I-147500J0D01*
G01*
X26117500Y-112720000D01*
G75*
G02*
X25970000Y-112572500I0J147500D01*
G01*
G37*
%TD.AperFunction*%
%TD*%
%TO.P,R23,2*%
%TO.N,/IN3*%
%TA.AperFunction,SMDPad,CuDef*%
G36*
G01*
X26940000Y-103772500D02*
X26940000Y-103427500D01*
G75*
G02*
X27087500Y-103280000I147500J0D01*
G01*
X27382500Y-103280000D01*
G75*
G02*
X27530000Y-103427500I0J-147500D01*
G01*
X27530000Y-103772500D01*
G75*
G02*
X27382500Y-103920000I-147500J0D01*
G01*
X27087500Y-103920000D01*
G75*
G02*
X26940000Y-103772500I0J147500D01*
G01*
G37*
%TD.AperFunction*%
%TO.P,R23,1*%
%TO.N,Net-(C13-Pad1)*%
%TA.AperFunction,SMDPad,CuDef*%
G36*
G01*
X25970000Y-103772500D02*
X25970000Y-103427500D01*
G75*
G02*
X26117500Y-103280000I147500J0D01*
G01*
X26412500Y-103280000D01*
G75*
G02*
X26560000Y-103427500I0J-147500D01*
G01*
X26560000Y-103772500D01*
G75*
G02*
X26412500Y-103920000I-147500J0D01*
G01*
X26117500Y-103920000D01*
G75*
G02*
X25970000Y-103772500I0J147500D01*
G01*
G37*
%TD.AperFunction*%
%TD*%
%TO.P,R22,2*%
%TO.N,/IN6*%
%TA.AperFunction,SMDPad,CuDef*%
G36*
G01*
X26940000Y-110072500D02*
X26940000Y-109727500D01*
G75*
G02*
X27087500Y-109580000I147500J0D01*
G01*
X27382500Y-109580000D01*
G75*
G02*
X27530000Y-109727500I0J-147500D01*
G01*
X27530000Y-110072500D01*
G75*
G02*
X27382500Y-110220000I-147500J0D01*
G01*
X27087500Y-110220000D01*
G75*
G02*
X26940000Y-110072500I0J147500D01*
G01*
G37*
%TD.AperFunction*%
%TO.P,R22,1*%
%TO.N,Net-(C11-Pad1)*%
%TA.AperFunction,SMDPad,CuDef*%
G36*
G01*
X25970000Y-110072500D02*
X25970000Y-109727500D01*
G75*
G02*
X26117500Y-109580000I147500J0D01*
G01*
X26412500Y-109580000D01*
G75*
G02*
X26560000Y-109727500I0J-147500D01*
G01*
X26560000Y-110072500D01*
G75*
G02*
X26412500Y-110220000I-147500J0D01*
G01*
X26117500Y-110220000D01*
G75*
G02*
X25970000Y-110072500I0J147500D01*
G01*
G37*
%TD.AperFunction*%
%TD*%
%TO.P,R21,2*%
%TO.N,/IN2*%
%TA.AperFunction,SMDPad,CuDef*%
G36*
G01*
X26940000Y-101272500D02*
X26940000Y-100927500D01*
G75*
G02*
X27087500Y-100780000I147500J0D01*
G01*
X27382500Y-100780000D01*
G75*
G02*
X27530000Y-100927500I0J-147500D01*
G01*
X27530000Y-101272500D01*
G75*
G02*
X27382500Y-101420000I-147500J0D01*
G01*
X27087500Y-101420000D01*
G75*
G02*
X26940000Y-101272500I0J147500D01*
G01*
G37*
%TD.AperFunction*%
%TO.P,R21,1*%
%TO.N,Net-(C9-Pad1)*%
%TA.AperFunction,SMDPad,CuDef*%
G36*
G01*
X25970000Y-101272500D02*
X25970000Y-100927500D01*
G75*
G02*
X26117500Y-100780000I147500J0D01*
G01*
X26412500Y-100780000D01*
G75*
G02*
X26560000Y-100927500I0J-147500D01*
G01*
X26560000Y-101272500D01*
G75*
G02*
X26412500Y-101420000I-147500J0D01*
G01*
X26117500Y-101420000D01*
G75*
G02*
X25970000Y-101272500I0J147500D01*
G01*
G37*
%TD.AperFunction*%
%TD*%
%TO.P,R20,2*%
%TO.N,/IN5*%
%TA.AperFunction,SMDPad,CuDef*%
G36*
G01*
X26940000Y-107572500D02*
X26940000Y-107227500D01*
G75*
G02*
X27087500Y-107080000I147500J0D01*
G01*
X27382500Y-107080000D01*
G75*
G02*
X27530000Y-107227500I0J-147500D01*
G01*
X27530000Y-107572500D01*
G75*
G02*
X27382500Y-107720000I-147500J0D01*
G01*
X27087500Y-107720000D01*
G75*
G02*
X26940000Y-107572500I0J147500D01*
G01*
G37*
%TD.AperFunction*%
%TO.P,R20,1*%
%TO.N,Net-(C7-Pad1)*%
%TA.AperFunction,SMDPad,CuDef*%
G36*
G01*
X25970000Y-107572500D02*
X25970000Y-107227500D01*
G75*
G02*
X26117500Y-107080000I147500J0D01*
G01*
X26412500Y-107080000D01*
G75*
G02*
X26560000Y-107227500I0J-147500D01*
G01*
X26560000Y-107572500D01*
G75*
G02*
X26412500Y-107720000I-147500J0D01*
G01*
X26117500Y-107720000D01*
G75*
G02*
X25970000Y-107572500I0J147500D01*
G01*
G37*
%TD.AperFunction*%
%TD*%
%TO.P,R19,2*%
%TO.N,/IN1*%
%TA.AperFunction,SMDPad,CuDef*%
G36*
G01*
X26940000Y-98772500D02*
X26940000Y-98427500D01*
G75*
G02*
X27087500Y-98280000I147500J0D01*
G01*
X27382500Y-98280000D01*
G75*
G02*
X27530000Y-98427500I0J-147500D01*
G01*
X27530000Y-98772500D01*
G75*
G02*
X27382500Y-98920000I-147500J0D01*
G01*
X27087500Y-98920000D01*
G75*
G02*
X26940000Y-98772500I0J147500D01*
G01*
G37*
%TD.AperFunction*%
%TO.P,R19,1*%
%TO.N,Net-(C5-Pad1)*%
%TA.AperFunction,SMDPad,CuDef*%
G36*
G01*
X25970000Y-98772500D02*
X25970000Y-98427500D01*
G75*
G02*
X26117500Y-98280000I147500J0D01*
G01*
X26412500Y-98280000D01*
G75*
G02*
X26560000Y-98427500I0J-147500D01*
G01*
X26560000Y-98772500D01*
G75*
G02*
X26412500Y-98920000I-147500J0D01*
G01*
X26117500Y-98920000D01*
G75*
G02*
X25970000Y-98772500I0J147500D01*
G01*
G37*
%TD.AperFunction*%
%TD*%
%TO.P,R18,2*%
%TO.N,/IN4*%
%TA.AperFunction,SMDPad,CuDef*%
G36*
G01*
X26940000Y-105072500D02*
X26940000Y-104727500D01*
G75*
G02*
X27087500Y-104580000I147500J0D01*
G01*
X27382500Y-104580000D01*
G75*
G02*
X27530000Y-104727500I0J-147500D01*
G01*
X27530000Y-105072500D01*
G75*
G02*
X27382500Y-105220000I-147500J0D01*
G01*
X27087500Y-105220000D01*
G75*
G02*
X26940000Y-105072500I0J147500D01*
G01*
G37*
%TD.AperFunction*%
%TO.P,R18,1*%
%TO.N,Net-(C3-Pad1)*%
%TA.AperFunction,SMDPad,CuDef*%
G36*
G01*
X25970000Y-105072500D02*
X25970000Y-104727500D01*
G75*
G02*
X26117500Y-104580000I147500J0D01*
G01*
X26412500Y-104580000D01*
G75*
G02*
X26560000Y-104727500I0J-147500D01*
G01*
X26560000Y-105072500D01*
G75*
G02*
X26412500Y-105220000I-147500J0D01*
G01*
X26117500Y-105220000D01*
G75*
G02*
X25970000Y-105072500I0J147500D01*
G01*
G37*
%TD.AperFunction*%
%TD*%
%TO.P,R17,2*%
%TO.N,/IN0*%
%TA.AperFunction,SMDPad,CuDef*%
G36*
G01*
X26940000Y-96272500D02*
X26940000Y-95927500D01*
G75*
G02*
X27087500Y-95780000I147500J0D01*
G01*
X27382500Y-95780000D01*
G75*
G02*
X27530000Y-95927500I0J-147500D01*
G01*
X27530000Y-96272500D01*
G75*
G02*
X27382500Y-96420000I-147500J0D01*
G01*
X27087500Y-96420000D01*
G75*
G02*
X26940000Y-96272500I0J147500D01*
G01*
G37*
%TD.AperFunction*%
%TO.P,R17,1*%
%TO.N,Net-(C1-Pad1)*%
%TA.AperFunction,SMDPad,CuDef*%
G36*
G01*
X25970000Y-96272500D02*
X25970000Y-95927500D01*
G75*
G02*
X26117500Y-95780000I147500J0D01*
G01*
X26412500Y-95780000D01*
G75*
G02*
X26560000Y-95927500I0J-147500D01*
G01*
X26560000Y-96272500D01*
G75*
G02*
X26412500Y-96420000I-147500J0D01*
G01*
X26117500Y-96420000D01*
G75*
G02*
X25970000Y-96272500I0J147500D01*
G01*
G37*
%TD.AperFunction*%
%TD*%
D10*
%TO.P,J2,16*%
%TO.N,/IN0*%
X30865000Y-99805000D03*
%TO.P,J2,15*%
%TO.N,GND*%
X32135000Y-99805000D03*
%TO.P,J2,14*%
%TO.N,/IN1*%
X30865000Y-101075000D03*
%TO.P,J2,13*%
%TO.N,GND*%
X32135000Y-101075000D03*
%TO.P,J2,12*%
%TO.N,/IN2*%
X30865000Y-102345000D03*
%TO.P,J2,11*%
%TO.N,GND*%
X32135000Y-102345000D03*
%TO.P,J2,10*%
%TO.N,/IN3*%
X30865000Y-103615000D03*
%TO.P,J2,9*%
%TO.N,GND*%
X32135000Y-103615000D03*
%TO.P,J2,8*%
%TO.N,/IN4*%
X30865000Y-104885000D03*
%TO.P,J2,7*%
%TO.N,GND*%
X32135000Y-104885000D03*
%TO.P,J2,6*%
%TO.N,/IN5*%
X30865000Y-106155000D03*
%TO.P,J2,5*%
%TO.N,GND*%
X32135000Y-106155000D03*
%TO.P,J2,4*%
%TO.N,/IN6*%
X30865000Y-107425000D03*
%TO.P,J2,3*%
%TO.N,GND*%
X32135000Y-107425000D03*
%TO.P,J2,2*%
%TO.N,/IN7*%
X30865000Y-108695000D03*
%TO.P,J2,1*%
%TO.N,GND*%
X32135000Y-108695000D03*
%TD*%
D11*
%TO.P,J1,16*%
%TO.N,/LA7*%
X17250000Y-113140000D03*
%TO.P,J1,14*%
%TO.N,/LA6*%
X17250000Y-110600000D03*
%TO.P,J1,12*%
%TO.N,/LA5*%
X17250000Y-108060000D03*
%TO.P,J1,10*%
%TO.N,/LA4*%
X17250000Y-105520000D03*
%TO.P,J1,8*%
%TO.N,/LA3*%
X17250000Y-102980000D03*
%TO.P,J1,6*%
%TO.N,/LA2*%
X17250000Y-100440000D03*
%TO.P,J1,4*%
%TO.N,/LA1*%
X17250000Y-97900000D03*
%TO.P,J1,2*%
%TO.N,/LA0*%
X17250000Y-95360000D03*
%TD*%
%TO.P,R16,2*%
%TO.N,GND*%
%TA.AperFunction,SMDPad,CuDef*%
G36*
G01*
X22560000Y-113477500D02*
X22560000Y-113822500D01*
G75*
G02*
X22412500Y-113970000I-147500J0D01*
G01*
X22117500Y-113970000D01*
G75*
G02*
X21970000Y-113822500I0J147500D01*
G01*
X21970000Y-113477500D01*
G75*
G02*
X22117500Y-113330000I147500J0D01*
G01*
X22412500Y-113330000D01*
G75*
G02*
X22560000Y-113477500I0J-147500D01*
G01*
G37*
%TD.AperFunction*%
%TO.P,R16,1*%
%TO.N,/LA7*%
%TA.AperFunction,SMDPad,CuDef*%
G36*
G01*
X23530000Y-113477500D02*
X23530000Y-113822500D01*
G75*
G02*
X23382500Y-113970000I-147500J0D01*
G01*
X23087500Y-113970000D01*
G75*
G02*
X22940000Y-113822500I0J147500D01*
G01*
X22940000Y-113477500D01*
G75*
G02*
X23087500Y-113330000I147500J0D01*
G01*
X23382500Y-113330000D01*
G75*
G02*
X23530000Y-113477500I0J-147500D01*
G01*
G37*
%TD.AperFunction*%
%TD*%
%TO.P,R15,2*%
%TO.N,/LA7*%
%TA.AperFunction,SMDPad,CuDef*%
G36*
G01*
X24560000Y-113477500D02*
X24560000Y-113822500D01*
G75*
G02*
X24412500Y-113970000I-147500J0D01*
G01*
X24117500Y-113970000D01*
G75*
G02*
X23970000Y-113822500I0J147500D01*
G01*
X23970000Y-113477500D01*
G75*
G02*
X24117500Y-113330000I147500J0D01*
G01*
X24412500Y-113330000D01*
G75*
G02*
X24560000Y-113477500I0J-147500D01*
G01*
G37*
%TD.AperFunction*%
%TO.P,R15,1*%
%TO.N,Net-(C15-Pad1)*%
%TA.AperFunction,SMDPad,CuDef*%
G36*
G01*
X25530000Y-113477500D02*
X25530000Y-113822500D01*
G75*
G02*
X25382500Y-113970000I-147500J0D01*
G01*
X25087500Y-113970000D01*
G75*
G02*
X24940000Y-113822500I0J147500D01*
G01*
X24940000Y-113477500D01*
G75*
G02*
X25087500Y-113330000I147500J0D01*
G01*
X25382500Y-113330000D01*
G75*
G02*
X25530000Y-113477500I0J-147500D01*
G01*
G37*
%TD.AperFunction*%
%TD*%
%TO.P,R14,2*%
%TO.N,GND*%
%TA.AperFunction,SMDPad,CuDef*%
G36*
G01*
X22560000Y-103427500D02*
X22560000Y-103772500D01*
G75*
G02*
X22412500Y-103920000I-147500J0D01*
G01*
X22117500Y-103920000D01*
G75*
G02*
X21970000Y-103772500I0J147500D01*
G01*
X21970000Y-103427500D01*
G75*
G02*
X22117500Y-103280000I147500J0D01*
G01*
X22412500Y-103280000D01*
G75*
G02*
X22560000Y-103427500I0J-147500D01*
G01*
G37*
%TD.AperFunction*%
%TO.P,R14,1*%
%TO.N,/LA3*%
%TA.AperFunction,SMDPad,CuDef*%
G36*
G01*
X23530000Y-103427500D02*
X23530000Y-103772500D01*
G75*
G02*
X23382500Y-103920000I-147500J0D01*
G01*
X23087500Y-103920000D01*
G75*
G02*
X22940000Y-103772500I0J147500D01*
G01*
X22940000Y-103427500D01*
G75*
G02*
X23087500Y-103280000I147500J0D01*
G01*
X23382500Y-103280000D01*
G75*
G02*
X23530000Y-103427500I0J-147500D01*
G01*
G37*
%TD.AperFunction*%
%TD*%
%TO.P,R13,2*%
%TO.N,/LA3*%
%TA.AperFunction,SMDPad,CuDef*%
G36*
G01*
X24560000Y-103427500D02*
X24560000Y-103772500D01*
G75*
G02*
X24412500Y-103920000I-147500J0D01*
G01*
X24117500Y-103920000D01*
G75*
G02*
X23970000Y-103772500I0J147500D01*
G01*
X23970000Y-103427500D01*
G75*
G02*
X24117500Y-103280000I147500J0D01*
G01*
X24412500Y-103280000D01*
G75*
G02*
X24560000Y-103427500I0J-147500D01*
G01*
G37*
%TD.AperFunction*%
%TO.P,R13,1*%
%TO.N,Net-(C13-Pad1)*%
%TA.AperFunction,SMDPad,CuDef*%
G36*
G01*
X25530000Y-103427500D02*
X25530000Y-103772500D01*
G75*
G02*
X25382500Y-103920000I-147500J0D01*
G01*
X25087500Y-103920000D01*
G75*
G02*
X24940000Y-103772500I0J147500D01*
G01*
X24940000Y-103427500D01*
G75*
G02*
X25087500Y-103280000I147500J0D01*
G01*
X25382500Y-103280000D01*
G75*
G02*
X25530000Y-103427500I0J-147500D01*
G01*
G37*
%TD.AperFunction*%
%TD*%
%TO.P,R12,2*%
%TO.N,GND*%
%TA.AperFunction,SMDPad,CuDef*%
G36*
G01*
X22560000Y-110977500D02*
X22560000Y-111322500D01*
G75*
G02*
X22412500Y-111470000I-147500J0D01*
G01*
X22117500Y-111470000D01*
G75*
G02*
X21970000Y-111322500I0J147500D01*
G01*
X21970000Y-110977500D01*
G75*
G02*
X22117500Y-110830000I147500J0D01*
G01*
X22412500Y-110830000D01*
G75*
G02*
X22560000Y-110977500I0J-147500D01*
G01*
G37*
%TD.AperFunction*%
%TO.P,R12,1*%
%TO.N,/LA6*%
%TA.AperFunction,SMDPad,CuDef*%
G36*
G01*
X23530000Y-110977500D02*
X23530000Y-111322500D01*
G75*
G02*
X23382500Y-111470000I-147500J0D01*
G01*
X23087500Y-111470000D01*
G75*
G02*
X22940000Y-111322500I0J147500D01*
G01*
X22940000Y-110977500D01*
G75*
G02*
X23087500Y-110830000I147500J0D01*
G01*
X23382500Y-110830000D01*
G75*
G02*
X23530000Y-110977500I0J-147500D01*
G01*
G37*
%TD.AperFunction*%
%TD*%
%TO.P,R11,2*%
%TO.N,/LA6*%
%TA.AperFunction,SMDPad,CuDef*%
G36*
G01*
X24560000Y-110977500D02*
X24560000Y-111322500D01*
G75*
G02*
X24412500Y-111470000I-147500J0D01*
G01*
X24117500Y-111470000D01*
G75*
G02*
X23970000Y-111322500I0J147500D01*
G01*
X23970000Y-110977500D01*
G75*
G02*
X24117500Y-110830000I147500J0D01*
G01*
X24412500Y-110830000D01*
G75*
G02*
X24560000Y-110977500I0J-147500D01*
G01*
G37*
%TD.AperFunction*%
%TO.P,R11,1*%
%TO.N,Net-(C11-Pad1)*%
%TA.AperFunction,SMDPad,CuDef*%
G36*
G01*
X25530000Y-110977500D02*
X25530000Y-111322500D01*
G75*
G02*
X25382500Y-111470000I-147500J0D01*
G01*
X25087500Y-111470000D01*
G75*
G02*
X24940000Y-111322500I0J147500D01*
G01*
X24940000Y-110977500D01*
G75*
G02*
X25087500Y-110830000I147500J0D01*
G01*
X25382500Y-110830000D01*
G75*
G02*
X25530000Y-110977500I0J-147500D01*
G01*
G37*
%TD.AperFunction*%
%TD*%
%TO.P,R10,2*%
%TO.N,GND*%
%TA.AperFunction,SMDPad,CuDef*%
G36*
G01*
X22560000Y-100927500D02*
X22560000Y-101272500D01*
G75*
G02*
X22412500Y-101420000I-147500J0D01*
G01*
X22117500Y-101420000D01*
G75*
G02*
X21970000Y-101272500I0J147500D01*
G01*
X21970000Y-100927500D01*
G75*
G02*
X22117500Y-100780000I147500J0D01*
G01*
X22412500Y-100780000D01*
G75*
G02*
X22560000Y-100927500I0J-147500D01*
G01*
G37*
%TD.AperFunction*%
%TO.P,R10,1*%
%TO.N,/LA2*%
%TA.AperFunction,SMDPad,CuDef*%
G36*
G01*
X23530000Y-100927500D02*
X23530000Y-101272500D01*
G75*
G02*
X23382500Y-101420000I-147500J0D01*
G01*
X23087500Y-101420000D01*
G75*
G02*
X22940000Y-101272500I0J147500D01*
G01*
X22940000Y-100927500D01*
G75*
G02*
X23087500Y-100780000I147500J0D01*
G01*
X23382500Y-100780000D01*
G75*
G02*
X23530000Y-100927500I0J-147500D01*
G01*
G37*
%TD.AperFunction*%
%TD*%
%TO.P,R9,2*%
%TO.N,/LA2*%
%TA.AperFunction,SMDPad,CuDef*%
G36*
G01*
X24560000Y-100927500D02*
X24560000Y-101272500D01*
G75*
G02*
X24412500Y-101420000I-147500J0D01*
G01*
X24117500Y-101420000D01*
G75*
G02*
X23970000Y-101272500I0J147500D01*
G01*
X23970000Y-100927500D01*
G75*
G02*
X24117500Y-100780000I147500J0D01*
G01*
X24412500Y-100780000D01*
G75*
G02*
X24560000Y-100927500I0J-147500D01*
G01*
G37*
%TD.AperFunction*%
%TO.P,R9,1*%
%TO.N,Net-(C9-Pad1)*%
%TA.AperFunction,SMDPad,CuDef*%
G36*
G01*
X25530000Y-100927500D02*
X25530000Y-101272500D01*
G75*
G02*
X25382500Y-101420000I-147500J0D01*
G01*
X25087500Y-101420000D01*
G75*
G02*
X24940000Y-101272500I0J147500D01*
G01*
X24940000Y-100927500D01*
G75*
G02*
X25087500Y-100780000I147500J0D01*
G01*
X25382500Y-100780000D01*
G75*
G02*
X25530000Y-100927500I0J-147500D01*
G01*
G37*
%TD.AperFunction*%
%TD*%
%TO.P,R8,2*%
%TO.N,GND*%
%TA.AperFunction,SMDPad,CuDef*%
G36*
G01*
X22560000Y-108477500D02*
X22560000Y-108822500D01*
G75*
G02*
X22412500Y-108970000I-147500J0D01*
G01*
X22117500Y-108970000D01*
G75*
G02*
X21970000Y-108822500I0J147500D01*
G01*
X21970000Y-108477500D01*
G75*
G02*
X22117500Y-108330000I147500J0D01*
G01*
X22412500Y-108330000D01*
G75*
G02*
X22560000Y-108477500I0J-147500D01*
G01*
G37*
%TD.AperFunction*%
%TO.P,R8,1*%
%TO.N,/LA5*%
%TA.AperFunction,SMDPad,CuDef*%
G36*
G01*
X23530000Y-108477500D02*
X23530000Y-108822500D01*
G75*
G02*
X23382500Y-108970000I-147500J0D01*
G01*
X23087500Y-108970000D01*
G75*
G02*
X22940000Y-108822500I0J147500D01*
G01*
X22940000Y-108477500D01*
G75*
G02*
X23087500Y-108330000I147500J0D01*
G01*
X23382500Y-108330000D01*
G75*
G02*
X23530000Y-108477500I0J-147500D01*
G01*
G37*
%TD.AperFunction*%
%TD*%
%TO.P,R7,2*%
%TO.N,/LA5*%
%TA.AperFunction,SMDPad,CuDef*%
G36*
G01*
X24560000Y-108477500D02*
X24560000Y-108822500D01*
G75*
G02*
X24412500Y-108970000I-147500J0D01*
G01*
X24117500Y-108970000D01*
G75*
G02*
X23970000Y-108822500I0J147500D01*
G01*
X23970000Y-108477500D01*
G75*
G02*
X24117500Y-108330000I147500J0D01*
G01*
X24412500Y-108330000D01*
G75*
G02*
X24560000Y-108477500I0J-147500D01*
G01*
G37*
%TD.AperFunction*%
%TO.P,R7,1*%
%TO.N,Net-(C7-Pad1)*%
%TA.AperFunction,SMDPad,CuDef*%
G36*
G01*
X25530000Y-108477500D02*
X25530000Y-108822500D01*
G75*
G02*
X25382500Y-108970000I-147500J0D01*
G01*
X25087500Y-108970000D01*
G75*
G02*
X24940000Y-108822500I0J147500D01*
G01*
X24940000Y-108477500D01*
G75*
G02*
X25087500Y-108330000I147500J0D01*
G01*
X25382500Y-108330000D01*
G75*
G02*
X25530000Y-108477500I0J-147500D01*
G01*
G37*
%TD.AperFunction*%
%TD*%
%TO.P,R6,2*%
%TO.N,GND*%
%TA.AperFunction,SMDPad,CuDef*%
G36*
G01*
X22560000Y-98427500D02*
X22560000Y-98772500D01*
G75*
G02*
X22412500Y-98920000I-147500J0D01*
G01*
X22117500Y-98920000D01*
G75*
G02*
X21970000Y-98772500I0J147500D01*
G01*
X21970000Y-98427500D01*
G75*
G02*
X22117500Y-98280000I147500J0D01*
G01*
X22412500Y-98280000D01*
G75*
G02*
X22560000Y-98427500I0J-147500D01*
G01*
G37*
%TD.AperFunction*%
%TO.P,R6,1*%
%TO.N,/LA1*%
%TA.AperFunction,SMDPad,CuDef*%
G36*
G01*
X23530000Y-98427500D02*
X23530000Y-98772500D01*
G75*
G02*
X23382500Y-98920000I-147500J0D01*
G01*
X23087500Y-98920000D01*
G75*
G02*
X22940000Y-98772500I0J147500D01*
G01*
X22940000Y-98427500D01*
G75*
G02*
X23087500Y-98280000I147500J0D01*
G01*
X23382500Y-98280000D01*
G75*
G02*
X23530000Y-98427500I0J-147500D01*
G01*
G37*
%TD.AperFunction*%
%TD*%
%TO.P,R5,2*%
%TO.N,/LA1*%
%TA.AperFunction,SMDPad,CuDef*%
G36*
G01*
X24560000Y-98427500D02*
X24560000Y-98772500D01*
G75*
G02*
X24412500Y-98920000I-147500J0D01*
G01*
X24117500Y-98920000D01*
G75*
G02*
X23970000Y-98772500I0J147500D01*
G01*
X23970000Y-98427500D01*
G75*
G02*
X24117500Y-98280000I147500J0D01*
G01*
X24412500Y-98280000D01*
G75*
G02*
X24560000Y-98427500I0J-147500D01*
G01*
G37*
%TD.AperFunction*%
%TO.P,R5,1*%
%TO.N,Net-(C5-Pad1)*%
%TA.AperFunction,SMDPad,CuDef*%
G36*
G01*
X25530000Y-98427500D02*
X25530000Y-98772500D01*
G75*
G02*
X25382500Y-98920000I-147500J0D01*
G01*
X25087500Y-98920000D01*
G75*
G02*
X24940000Y-98772500I0J147500D01*
G01*
X24940000Y-98427500D01*
G75*
G02*
X25087500Y-98280000I147500J0D01*
G01*
X25382500Y-98280000D01*
G75*
G02*
X25530000Y-98427500I0J-147500D01*
G01*
G37*
%TD.AperFunction*%
%TD*%
%TO.P,R4,2*%
%TO.N,GND*%
%TA.AperFunction,SMDPad,CuDef*%
G36*
G01*
X22560000Y-105977500D02*
X22560000Y-106322500D01*
G75*
G02*
X22412500Y-106470000I-147500J0D01*
G01*
X22117500Y-106470000D01*
G75*
G02*
X21970000Y-106322500I0J147500D01*
G01*
X21970000Y-105977500D01*
G75*
G02*
X22117500Y-105830000I147500J0D01*
G01*
X22412500Y-105830000D01*
G75*
G02*
X22560000Y-105977500I0J-147500D01*
G01*
G37*
%TD.AperFunction*%
%TO.P,R4,1*%
%TO.N,/LA4*%
%TA.AperFunction,SMDPad,CuDef*%
G36*
G01*
X23530000Y-105977500D02*
X23530000Y-106322500D01*
G75*
G02*
X23382500Y-106470000I-147500J0D01*
G01*
X23087500Y-106470000D01*
G75*
G02*
X22940000Y-106322500I0J147500D01*
G01*
X22940000Y-105977500D01*
G75*
G02*
X23087500Y-105830000I147500J0D01*
G01*
X23382500Y-105830000D01*
G75*
G02*
X23530000Y-105977500I0J-147500D01*
G01*
G37*
%TD.AperFunction*%
%TD*%
%TO.P,R3,2*%
%TO.N,/LA4*%
%TA.AperFunction,SMDPad,CuDef*%
G36*
G01*
X24560000Y-105977500D02*
X24560000Y-106322500D01*
G75*
G02*
X24412500Y-106470000I-147500J0D01*
G01*
X24117500Y-106470000D01*
G75*
G02*
X23970000Y-106322500I0J147500D01*
G01*
X23970000Y-105977500D01*
G75*
G02*
X24117500Y-105830000I147500J0D01*
G01*
X24412500Y-105830000D01*
G75*
G02*
X24560000Y-105977500I0J-147500D01*
G01*
G37*
%TD.AperFunction*%
%TO.P,R3,1*%
%TO.N,Net-(C3-Pad1)*%
%TA.AperFunction,SMDPad,CuDef*%
G36*
G01*
X25530000Y-105977500D02*
X25530000Y-106322500D01*
G75*
G02*
X25382500Y-106470000I-147500J0D01*
G01*
X25087500Y-106470000D01*
G75*
G02*
X24940000Y-106322500I0J147500D01*
G01*
X24940000Y-105977500D01*
G75*
G02*
X25087500Y-105830000I147500J0D01*
G01*
X25382500Y-105830000D01*
G75*
G02*
X25530000Y-105977500I0J-147500D01*
G01*
G37*
%TD.AperFunction*%
%TD*%
%TO.P,R2,2*%
%TO.N,GND*%
%TA.AperFunction,SMDPad,CuDef*%
G36*
G01*
X22560000Y-95927500D02*
X22560000Y-96272500D01*
G75*
G02*
X22412500Y-96420000I-147500J0D01*
G01*
X22117500Y-96420000D01*
G75*
G02*
X21970000Y-96272500I0J147500D01*
G01*
X21970000Y-95927500D01*
G75*
G02*
X22117500Y-95780000I147500J0D01*
G01*
X22412500Y-95780000D01*
G75*
G02*
X22560000Y-95927500I0J-147500D01*
G01*
G37*
%TD.AperFunction*%
%TO.P,R2,1*%
%TO.N,/LA0*%
%TA.AperFunction,SMDPad,CuDef*%
G36*
G01*
X23530000Y-95927500D02*
X23530000Y-96272500D01*
G75*
G02*
X23382500Y-96420000I-147500J0D01*
G01*
X23087500Y-96420000D01*
G75*
G02*
X22940000Y-96272500I0J147500D01*
G01*
X22940000Y-95927500D01*
G75*
G02*
X23087500Y-95780000I147500J0D01*
G01*
X23382500Y-95780000D01*
G75*
G02*
X23530000Y-95927500I0J-147500D01*
G01*
G37*
%TD.AperFunction*%
%TD*%
%TO.P,R1,2*%
%TO.N,/LA0*%
%TA.AperFunction,SMDPad,CuDef*%
G36*
G01*
X24560000Y-95927500D02*
X24560000Y-96272500D01*
G75*
G02*
X24412500Y-96420000I-147500J0D01*
G01*
X24117500Y-96420000D01*
G75*
G02*
X23970000Y-96272500I0J147500D01*
G01*
X23970000Y-95927500D01*
G75*
G02*
X24117500Y-95780000I147500J0D01*
G01*
X24412500Y-95780000D01*
G75*
G02*
X24560000Y-95927500I0J-147500D01*
G01*
G37*
%TD.AperFunction*%
%TO.P,R1,1*%
%TO.N,Net-(C1-Pad1)*%
%TA.AperFunction,SMDPad,CuDef*%
G36*
G01*
X25530000Y-95927500D02*
X25530000Y-96272500D01*
G75*
G02*
X25382500Y-96420000I-147500J0D01*
G01*
X25087500Y-96420000D01*
G75*
G02*
X24940000Y-96272500I0J147500D01*
G01*
X24940000Y-95927500D01*
G75*
G02*
X25087500Y-95780000I147500J0D01*
G01*
X25382500Y-95780000D01*
G75*
G02*
X25530000Y-95927500I0J-147500D01*
G01*
G37*
%TD.AperFunction*%
%TD*%
%TO.P,C16,2*%
%TO.N,GND*%
%TA.AperFunction,SMDPad,CuDef*%
G36*
G01*
X22560000Y-112227500D02*
X22560000Y-112572500D01*
G75*
G02*
X22412500Y-112720000I-147500J0D01*
G01*
X22117500Y-112720000D01*
G75*
G02*
X21970000Y-112572500I0J147500D01*
G01*
X21970000Y-112227500D01*
G75*
G02*
X22117500Y-112080000I147500J0D01*
G01*
X22412500Y-112080000D01*
G75*
G02*
X22560000Y-112227500I0J-147500D01*
G01*
G37*
%TD.AperFunction*%
%TO.P,C16,1*%
%TO.N,/LA7*%
%TA.AperFunction,SMDPad,CuDef*%
G36*
G01*
X23530000Y-112227500D02*
X23530000Y-112572500D01*
G75*
G02*
X23382500Y-112720000I-147500J0D01*
G01*
X23087500Y-112720000D01*
G75*
G02*
X22940000Y-112572500I0J147500D01*
G01*
X22940000Y-112227500D01*
G75*
G02*
X23087500Y-112080000I147500J0D01*
G01*
X23382500Y-112080000D01*
G75*
G02*
X23530000Y-112227500I0J-147500D01*
G01*
G37*
%TD.AperFunction*%
%TD*%
%TO.P,C15,2*%
%TO.N,/LA7*%
%TA.AperFunction,SMDPad,CuDef*%
G36*
G01*
X24560000Y-112227500D02*
X24560000Y-112572500D01*
G75*
G02*
X24412500Y-112720000I-147500J0D01*
G01*
X24117500Y-112720000D01*
G75*
G02*
X23970000Y-112572500I0J147500D01*
G01*
X23970000Y-112227500D01*
G75*
G02*
X24117500Y-112080000I147500J0D01*
G01*
X24412500Y-112080000D01*
G75*
G02*
X24560000Y-112227500I0J-147500D01*
G01*
G37*
%TD.AperFunction*%
%TO.P,C15,1*%
%TO.N,Net-(C15-Pad1)*%
%TA.AperFunction,SMDPad,CuDef*%
G36*
G01*
X25530000Y-112227500D02*
X25530000Y-112572500D01*
G75*
G02*
X25382500Y-112720000I-147500J0D01*
G01*
X25087500Y-112720000D01*
G75*
G02*
X24940000Y-112572500I0J147500D01*
G01*
X24940000Y-112227500D01*
G75*
G02*
X25087500Y-112080000I147500J0D01*
G01*
X25382500Y-112080000D01*
G75*
G02*
X25530000Y-112227500I0J-147500D01*
G01*
G37*
%TD.AperFunction*%
%TD*%
%TO.P,C14,2*%
%TO.N,GND*%
%TA.AperFunction,SMDPad,CuDef*%
G36*
G01*
X22560000Y-102177500D02*
X22560000Y-102522500D01*
G75*
G02*
X22412500Y-102670000I-147500J0D01*
G01*
X22117500Y-102670000D01*
G75*
G02*
X21970000Y-102522500I0J147500D01*
G01*
X21970000Y-102177500D01*
G75*
G02*
X22117500Y-102030000I147500J0D01*
G01*
X22412500Y-102030000D01*
G75*
G02*
X22560000Y-102177500I0J-147500D01*
G01*
G37*
%TD.AperFunction*%
%TO.P,C14,1*%
%TO.N,/LA3*%
%TA.AperFunction,SMDPad,CuDef*%
G36*
G01*
X23530000Y-102177500D02*
X23530000Y-102522500D01*
G75*
G02*
X23382500Y-102670000I-147500J0D01*
G01*
X23087500Y-102670000D01*
G75*
G02*
X22940000Y-102522500I0J147500D01*
G01*
X22940000Y-102177500D01*
G75*
G02*
X23087500Y-102030000I147500J0D01*
G01*
X23382500Y-102030000D01*
G75*
G02*
X23530000Y-102177500I0J-147500D01*
G01*
G37*
%TD.AperFunction*%
%TD*%
%TO.P,C13,2*%
%TO.N,/LA3*%
%TA.AperFunction,SMDPad,CuDef*%
G36*
G01*
X24560000Y-102177500D02*
X24560000Y-102522500D01*
G75*
G02*
X24412500Y-102670000I-147500J0D01*
G01*
X24117500Y-102670000D01*
G75*
G02*
X23970000Y-102522500I0J147500D01*
G01*
X23970000Y-102177500D01*
G75*
G02*
X24117500Y-102030000I147500J0D01*
G01*
X24412500Y-102030000D01*
G75*
G02*
X24560000Y-102177500I0J-147500D01*
G01*
G37*
%TD.AperFunction*%
%TO.P,C13,1*%
%TO.N,Net-(C13-Pad1)*%
%TA.AperFunction,SMDPad,CuDef*%
G36*
G01*
X25530000Y-102177500D02*
X25530000Y-102522500D01*
G75*
G02*
X25382500Y-102670000I-147500J0D01*
G01*
X25087500Y-102670000D01*
G75*
G02*
X24940000Y-102522500I0J147500D01*
G01*
X24940000Y-102177500D01*
G75*
G02*
X25087500Y-102030000I147500J0D01*
G01*
X25382500Y-102030000D01*
G75*
G02*
X25530000Y-102177500I0J-147500D01*
G01*
G37*
%TD.AperFunction*%
%TD*%
%TO.P,C12,2*%
%TO.N,GND*%
%TA.AperFunction,SMDPad,CuDef*%
G36*
G01*
X22560000Y-109727500D02*
X22560000Y-110072500D01*
G75*
G02*
X22412500Y-110220000I-147500J0D01*
G01*
X22117500Y-110220000D01*
G75*
G02*
X21970000Y-110072500I0J147500D01*
G01*
X21970000Y-109727500D01*
G75*
G02*
X22117500Y-109580000I147500J0D01*
G01*
X22412500Y-109580000D01*
G75*
G02*
X22560000Y-109727500I0J-147500D01*
G01*
G37*
%TD.AperFunction*%
%TO.P,C12,1*%
%TO.N,/LA6*%
%TA.AperFunction,SMDPad,CuDef*%
G36*
G01*
X23530000Y-109727500D02*
X23530000Y-110072500D01*
G75*
G02*
X23382500Y-110220000I-147500J0D01*
G01*
X23087500Y-110220000D01*
G75*
G02*
X22940000Y-110072500I0J147500D01*
G01*
X22940000Y-109727500D01*
G75*
G02*
X23087500Y-109580000I147500J0D01*
G01*
X23382500Y-109580000D01*
G75*
G02*
X23530000Y-109727500I0J-147500D01*
G01*
G37*
%TD.AperFunction*%
%TD*%
%TO.P,C11,2*%
%TO.N,/LA6*%
%TA.AperFunction,SMDPad,CuDef*%
G36*
G01*
X24560000Y-109727500D02*
X24560000Y-110072500D01*
G75*
G02*
X24412500Y-110220000I-147500J0D01*
G01*
X24117500Y-110220000D01*
G75*
G02*
X23970000Y-110072500I0J147500D01*
G01*
X23970000Y-109727500D01*
G75*
G02*
X24117500Y-109580000I147500J0D01*
G01*
X24412500Y-109580000D01*
G75*
G02*
X24560000Y-109727500I0J-147500D01*
G01*
G37*
%TD.AperFunction*%
%TO.P,C11,1*%
%TO.N,Net-(C11-Pad1)*%
%TA.AperFunction,SMDPad,CuDef*%
G36*
G01*
X25530000Y-109727500D02*
X25530000Y-110072500D01*
G75*
G02*
X25382500Y-110220000I-147500J0D01*
G01*
X25087500Y-110220000D01*
G75*
G02*
X24940000Y-110072500I0J147500D01*
G01*
X24940000Y-109727500D01*
G75*
G02*
X25087500Y-109580000I147500J0D01*
G01*
X25382500Y-109580000D01*
G75*
G02*
X25530000Y-109727500I0J-147500D01*
G01*
G37*
%TD.AperFunction*%
%TD*%
%TO.P,C10,2*%
%TO.N,GND*%
%TA.AperFunction,SMDPad,CuDef*%
G36*
G01*
X22560000Y-99677500D02*
X22560000Y-100022500D01*
G75*
G02*
X22412500Y-100170000I-147500J0D01*
G01*
X22117500Y-100170000D01*
G75*
G02*
X21970000Y-100022500I0J147500D01*
G01*
X21970000Y-99677500D01*
G75*
G02*
X22117500Y-99530000I147500J0D01*
G01*
X22412500Y-99530000D01*
G75*
G02*
X22560000Y-99677500I0J-147500D01*
G01*
G37*
%TD.AperFunction*%
%TO.P,C10,1*%
%TO.N,/LA2*%
%TA.AperFunction,SMDPad,CuDef*%
G36*
G01*
X23530000Y-99677500D02*
X23530000Y-100022500D01*
G75*
G02*
X23382500Y-100170000I-147500J0D01*
G01*
X23087500Y-100170000D01*
G75*
G02*
X22940000Y-100022500I0J147500D01*
G01*
X22940000Y-99677500D01*
G75*
G02*
X23087500Y-99530000I147500J0D01*
G01*
X23382500Y-99530000D01*
G75*
G02*
X23530000Y-99677500I0J-147500D01*
G01*
G37*
%TD.AperFunction*%
%TD*%
%TO.P,C9,2*%
%TO.N,/LA2*%
%TA.AperFunction,SMDPad,CuDef*%
G36*
G01*
X24560000Y-99677500D02*
X24560000Y-100022500D01*
G75*
G02*
X24412500Y-100170000I-147500J0D01*
G01*
X24117500Y-100170000D01*
G75*
G02*
X23970000Y-100022500I0J147500D01*
G01*
X23970000Y-99677500D01*
G75*
G02*
X24117500Y-99530000I147500J0D01*
G01*
X24412500Y-99530000D01*
G75*
G02*
X24560000Y-99677500I0J-147500D01*
G01*
G37*
%TD.AperFunction*%
%TO.P,C9,1*%
%TO.N,Net-(C9-Pad1)*%
%TA.AperFunction,SMDPad,CuDef*%
G36*
G01*
X25530000Y-99677500D02*
X25530000Y-100022500D01*
G75*
G02*
X25382500Y-100170000I-147500J0D01*
G01*
X25087500Y-100170000D01*
G75*
G02*
X24940000Y-100022500I0J147500D01*
G01*
X24940000Y-99677500D01*
G75*
G02*
X25087500Y-99530000I147500J0D01*
G01*
X25382500Y-99530000D01*
G75*
G02*
X25530000Y-99677500I0J-147500D01*
G01*
G37*
%TD.AperFunction*%
%TD*%
%TO.P,C8,2*%
%TO.N,GND*%
%TA.AperFunction,SMDPad,CuDef*%
G36*
G01*
X22560000Y-107227500D02*
X22560000Y-107572500D01*
G75*
G02*
X22412500Y-107720000I-147500J0D01*
G01*
X22117500Y-107720000D01*
G75*
G02*
X21970000Y-107572500I0J147500D01*
G01*
X21970000Y-107227500D01*
G75*
G02*
X22117500Y-107080000I147500J0D01*
G01*
X22412500Y-107080000D01*
G75*
G02*
X22560000Y-107227500I0J-147500D01*
G01*
G37*
%TD.AperFunction*%
%TO.P,C8,1*%
%TO.N,/LA5*%
%TA.AperFunction,SMDPad,CuDef*%
G36*
G01*
X23530000Y-107227500D02*
X23530000Y-107572500D01*
G75*
G02*
X23382500Y-107720000I-147500J0D01*
G01*
X23087500Y-107720000D01*
G75*
G02*
X22940000Y-107572500I0J147500D01*
G01*
X22940000Y-107227500D01*
G75*
G02*
X23087500Y-107080000I147500J0D01*
G01*
X23382500Y-107080000D01*
G75*
G02*
X23530000Y-107227500I0J-147500D01*
G01*
G37*
%TD.AperFunction*%
%TD*%
%TO.P,C7,2*%
%TO.N,/LA5*%
%TA.AperFunction,SMDPad,CuDef*%
G36*
G01*
X24560000Y-107227500D02*
X24560000Y-107572500D01*
G75*
G02*
X24412500Y-107720000I-147500J0D01*
G01*
X24117500Y-107720000D01*
G75*
G02*
X23970000Y-107572500I0J147500D01*
G01*
X23970000Y-107227500D01*
G75*
G02*
X24117500Y-107080000I147500J0D01*
G01*
X24412500Y-107080000D01*
G75*
G02*
X24560000Y-107227500I0J-147500D01*
G01*
G37*
%TD.AperFunction*%
%TO.P,C7,1*%
%TO.N,Net-(C7-Pad1)*%
%TA.AperFunction,SMDPad,CuDef*%
G36*
G01*
X25530000Y-107227500D02*
X25530000Y-107572500D01*
G75*
G02*
X25382500Y-107720000I-147500J0D01*
G01*
X25087500Y-107720000D01*
G75*
G02*
X24940000Y-107572500I0J147500D01*
G01*
X24940000Y-107227500D01*
G75*
G02*
X25087500Y-107080000I147500J0D01*
G01*
X25382500Y-107080000D01*
G75*
G02*
X25530000Y-107227500I0J-147500D01*
G01*
G37*
%TD.AperFunction*%
%TD*%
%TO.P,C6,2*%
%TO.N,GND*%
%TA.AperFunction,SMDPad,CuDef*%
G36*
G01*
X22560000Y-97177500D02*
X22560000Y-97522500D01*
G75*
G02*
X22412500Y-97670000I-147500J0D01*
G01*
X22117500Y-97670000D01*
G75*
G02*
X21970000Y-97522500I0J147500D01*
G01*
X21970000Y-97177500D01*
G75*
G02*
X22117500Y-97030000I147500J0D01*
G01*
X22412500Y-97030000D01*
G75*
G02*
X22560000Y-97177500I0J-147500D01*
G01*
G37*
%TD.AperFunction*%
%TO.P,C6,1*%
%TO.N,/LA1*%
%TA.AperFunction,SMDPad,CuDef*%
G36*
G01*
X23530000Y-97177500D02*
X23530000Y-97522500D01*
G75*
G02*
X23382500Y-97670000I-147500J0D01*
G01*
X23087500Y-97670000D01*
G75*
G02*
X22940000Y-97522500I0J147500D01*
G01*
X22940000Y-97177500D01*
G75*
G02*
X23087500Y-97030000I147500J0D01*
G01*
X23382500Y-97030000D01*
G75*
G02*
X23530000Y-97177500I0J-147500D01*
G01*
G37*
%TD.AperFunction*%
%TD*%
%TO.P,C5,2*%
%TO.N,/LA1*%
%TA.AperFunction,SMDPad,CuDef*%
G36*
G01*
X24560000Y-97177500D02*
X24560000Y-97522500D01*
G75*
G02*
X24412500Y-97670000I-147500J0D01*
G01*
X24117500Y-97670000D01*
G75*
G02*
X23970000Y-97522500I0J147500D01*
G01*
X23970000Y-97177500D01*
G75*
G02*
X24117500Y-97030000I147500J0D01*
G01*
X24412500Y-97030000D01*
G75*
G02*
X24560000Y-97177500I0J-147500D01*
G01*
G37*
%TD.AperFunction*%
%TO.P,C5,1*%
%TO.N,Net-(C5-Pad1)*%
%TA.AperFunction,SMDPad,CuDef*%
G36*
G01*
X25530000Y-97177500D02*
X25530000Y-97522500D01*
G75*
G02*
X25382500Y-97670000I-147500J0D01*
G01*
X25087500Y-97670000D01*
G75*
G02*
X24940000Y-97522500I0J147500D01*
G01*
X24940000Y-97177500D01*
G75*
G02*
X25087500Y-97030000I147500J0D01*
G01*
X25382500Y-97030000D01*
G75*
G02*
X25530000Y-97177500I0J-147500D01*
G01*
G37*
%TD.AperFunction*%
%TD*%
%TO.P,C4,2*%
%TO.N,GND*%
%TA.AperFunction,SMDPad,CuDef*%
G36*
G01*
X22560000Y-104727500D02*
X22560000Y-105072500D01*
G75*
G02*
X22412500Y-105220000I-147500J0D01*
G01*
X22117500Y-105220000D01*
G75*
G02*
X21970000Y-105072500I0J147500D01*
G01*
X21970000Y-104727500D01*
G75*
G02*
X22117500Y-104580000I147500J0D01*
G01*
X22412500Y-104580000D01*
G75*
G02*
X22560000Y-104727500I0J-147500D01*
G01*
G37*
%TD.AperFunction*%
%TO.P,C4,1*%
%TO.N,/LA4*%
%TA.AperFunction,SMDPad,CuDef*%
G36*
G01*
X23530000Y-104727500D02*
X23530000Y-105072500D01*
G75*
G02*
X23382500Y-105220000I-147500J0D01*
G01*
X23087500Y-105220000D01*
G75*
G02*
X22940000Y-105072500I0J147500D01*
G01*
X22940000Y-104727500D01*
G75*
G02*
X23087500Y-104580000I147500J0D01*
G01*
X23382500Y-104580000D01*
G75*
G02*
X23530000Y-104727500I0J-147500D01*
G01*
G37*
%TD.AperFunction*%
%TD*%
%TO.P,C3,2*%
%TO.N,/LA4*%
%TA.AperFunction,SMDPad,CuDef*%
G36*
G01*
X24560000Y-104727500D02*
X24560000Y-105072500D01*
G75*
G02*
X24412500Y-105220000I-147500J0D01*
G01*
X24117500Y-105220000D01*
G75*
G02*
X23970000Y-105072500I0J147500D01*
G01*
X23970000Y-104727500D01*
G75*
G02*
X24117500Y-104580000I147500J0D01*
G01*
X24412500Y-104580000D01*
G75*
G02*
X24560000Y-104727500I0J-147500D01*
G01*
G37*
%TD.AperFunction*%
%TO.P,C3,1*%
%TO.N,Net-(C3-Pad1)*%
%TA.AperFunction,SMDPad,CuDef*%
G36*
G01*
X25530000Y-104727500D02*
X25530000Y-105072500D01*
G75*
G02*
X25382500Y-105220000I-147500J0D01*
G01*
X25087500Y-105220000D01*
G75*
G02*
X24940000Y-105072500I0J147500D01*
G01*
X24940000Y-104727500D01*
G75*
G02*
X25087500Y-104580000I147500J0D01*
G01*
X25382500Y-104580000D01*
G75*
G02*
X25530000Y-104727500I0J-147500D01*
G01*
G37*
%TD.AperFunction*%
%TD*%
%TO.P,C2,2*%
%TO.N,GND*%
%TA.AperFunction,SMDPad,CuDef*%
G36*
G01*
X22560000Y-94677500D02*
X22560000Y-95022500D01*
G75*
G02*
X22412500Y-95170000I-147500J0D01*
G01*
X22117500Y-95170000D01*
G75*
G02*
X21970000Y-95022500I0J147500D01*
G01*
X21970000Y-94677500D01*
G75*
G02*
X22117500Y-94530000I147500J0D01*
G01*
X22412500Y-94530000D01*
G75*
G02*
X22560000Y-94677500I0J-147500D01*
G01*
G37*
%TD.AperFunction*%
%TO.P,C2,1*%
%TO.N,/LA0*%
%TA.AperFunction,SMDPad,CuDef*%
G36*
G01*
X23530000Y-94677500D02*
X23530000Y-95022500D01*
G75*
G02*
X23382500Y-95170000I-147500J0D01*
G01*
X23087500Y-95170000D01*
G75*
G02*
X22940000Y-95022500I0J147500D01*
G01*
X22940000Y-94677500D01*
G75*
G02*
X23087500Y-94530000I147500J0D01*
G01*
X23382500Y-94530000D01*
G75*
G02*
X23530000Y-94677500I0J-147500D01*
G01*
G37*
%TD.AperFunction*%
%TD*%
%TO.P,C1,2*%
%TO.N,/LA0*%
%TA.AperFunction,SMDPad,CuDef*%
G36*
G01*
X24560000Y-94677500D02*
X24560000Y-95022500D01*
G75*
G02*
X24412500Y-95170000I-147500J0D01*
G01*
X24117500Y-95170000D01*
G75*
G02*
X23970000Y-95022500I0J147500D01*
G01*
X23970000Y-94677500D01*
G75*
G02*
X24117500Y-94530000I147500J0D01*
G01*
X24412500Y-94530000D01*
G75*
G02*
X24560000Y-94677500I0J-147500D01*
G01*
G37*
%TD.AperFunction*%
%TO.P,C1,1*%
%TO.N,Net-(C1-Pad1)*%
%TA.AperFunction,SMDPad,CuDef*%
G36*
G01*
X25530000Y-94677500D02*
X25530000Y-95022500D01*
G75*
G02*
X25382500Y-95170000I-147500J0D01*
G01*
X25087500Y-95170000D01*
G75*
G02*
X24940000Y-95022500I0J147500D01*
G01*
X24940000Y-94677500D01*
G75*
G02*
X25087500Y-94530000I147500J0D01*
G01*
X25382500Y-94530000D01*
G75*
G02*
X25530000Y-94677500I0J-147500D01*
G01*
G37*
%TD.AperFunction*%
%TD*%
D12*
%TO.N,GND*%
X21450000Y-94850000D03*
X21450000Y-96100000D03*
X21450000Y-97350000D03*
X21450000Y-98600000D03*
X21450000Y-99850000D03*
X21450000Y-101100000D03*
X21450000Y-102350000D03*
X21450000Y-103600000D03*
X21450000Y-104900000D03*
X21450000Y-106150000D03*
X21450000Y-107400000D03*
X21450000Y-108650000D03*
X21450000Y-109900000D03*
X21450000Y-111150000D03*
X21450000Y-112400000D03*
X21450000Y-113650000D03*
%TD*%
D13*
%TO.N,GND*%
X22265000Y-94850000D02*
X21450000Y-94850000D01*
X22265000Y-96100000D02*
X21450000Y-96100000D01*
X22265000Y-97350000D02*
X21450000Y-97350000D01*
X22265000Y-98600000D02*
X21450000Y-98600000D01*
X22265000Y-99850000D02*
X21450000Y-99850000D01*
X22265000Y-101100000D02*
X21450000Y-101100000D01*
X22265000Y-102350000D02*
X21450000Y-102350000D01*
X22265000Y-103600000D02*
X21450000Y-103600000D01*
X22265000Y-104900000D02*
X21450000Y-104900000D01*
X22265000Y-106150000D02*
X21450000Y-106150000D01*
X22265000Y-107400000D02*
X21450000Y-107400000D01*
X22265000Y-108650000D02*
X21450000Y-108650000D01*
X22265000Y-109900000D02*
X21450000Y-109900000D01*
X22265000Y-111150000D02*
X21450000Y-111150000D01*
X22265000Y-112400000D02*
X21450000Y-112400000D01*
X22265000Y-113650000D02*
X21450000Y-113650000D01*
%TO.N,/LA0*%
X23235000Y-96100000D02*
X23235000Y-95780000D01*
X23235000Y-95485000D02*
X23220000Y-95500000D01*
X23235000Y-95485000D02*
X23235000Y-96100000D01*
X23235000Y-94850000D02*
X23235000Y-95485000D01*
X17390000Y-95500000D02*
X17250000Y-95360000D01*
X23220000Y-95500000D02*
X17390000Y-95500000D01*
X23235000Y-94850000D02*
X24265000Y-94850000D01*
X23235000Y-96100000D02*
X24265000Y-96100000D01*
%TO.N,/IN0*%
X27235000Y-96100000D02*
X28150000Y-96100000D01*
X30865000Y-98815000D02*
X30865000Y-99805000D01*
X28150000Y-96100000D02*
X30865000Y-98815000D01*
%TO.N,Net-(C1-Pad1)*%
X25235000Y-94850000D02*
X25235000Y-96100000D01*
%TO.N,/LA4*%
X24265000Y-104900000D02*
X23235000Y-104900000D01*
X23235000Y-106150000D02*
X24265000Y-106150000D01*
X17255000Y-105515000D02*
X17250000Y-105520000D01*
X23235000Y-105515000D02*
X23235000Y-106150000D01*
X23235000Y-105515000D02*
X17255000Y-105515000D01*
X23235000Y-104900000D02*
X23235000Y-105515000D01*
%TO.N,/IN4*%
X30850000Y-104900000D02*
X30865000Y-104885000D01*
X27235000Y-104900000D02*
X30850000Y-104900000D01*
%TO.N,Net-(C3-Pad1)*%
X25250000Y-104885000D02*
X25235000Y-104900000D01*
X25235000Y-104900000D02*
X25235000Y-106150000D01*
%TO.N,/LA1*%
X24265000Y-97350000D02*
X23235000Y-97350000D01*
X24265000Y-98600000D02*
X23235000Y-98600000D01*
X17335000Y-97985000D02*
X17250000Y-97900000D01*
X23235000Y-97985000D02*
X17335000Y-97985000D01*
X23235000Y-97985000D02*
X23235000Y-98600000D01*
X23235000Y-97350000D02*
X23235000Y-97985000D01*
%TO.N,/IN1*%
X27235000Y-98600000D02*
X28350000Y-98600000D01*
X28350000Y-98600000D02*
X29600000Y-99850000D01*
X29600000Y-99850000D02*
X29600000Y-100600000D01*
X30075000Y-101075000D02*
X30865000Y-101075000D01*
X29600000Y-100600000D02*
X30075000Y-101075000D01*
%TO.N,Net-(C5-Pad1)*%
X25235000Y-97350000D02*
X25235000Y-98600000D01*
%TO.N,/LA5*%
X24265000Y-107400000D02*
X23235000Y-107400000D01*
X23235000Y-108650000D02*
X24265000Y-108650000D01*
X17295000Y-108015000D02*
X17250000Y-108060000D01*
X23235000Y-108015000D02*
X17295000Y-108015000D01*
X23235000Y-108015000D02*
X23235000Y-108650000D01*
X23235000Y-107400000D02*
X23235000Y-108015000D01*
%TO.N,/IN5*%
X27235000Y-107400000D02*
X28350000Y-107400000D01*
X29595000Y-106155000D02*
X30865000Y-106155000D01*
X28350000Y-107400000D02*
X29595000Y-106155000D01*
%TO.N,Net-(C7-Pad1)*%
X25235000Y-107400000D02*
X25235000Y-108650000D01*
%TO.N,/LA2*%
X24265000Y-99850000D02*
X23235000Y-99850000D01*
X24265000Y-101100000D02*
X23235000Y-101100000D01*
X17275000Y-100465000D02*
X17250000Y-100440000D01*
X23235000Y-100465000D02*
X17275000Y-100465000D01*
X23235000Y-100465000D02*
X23235000Y-101100000D01*
X23235000Y-99850000D02*
X23235000Y-100465000D01*
%TO.N,/IN2*%
X27235000Y-101100000D02*
X28300000Y-101100000D01*
X29545000Y-102345000D02*
X30865000Y-102345000D01*
X28300000Y-101100000D02*
X29545000Y-102345000D01*
%TO.N,Net-(C9-Pad1)*%
X25235000Y-99850000D02*
X25235000Y-101100000D01*
%TO.N,/LA6*%
X24265000Y-109900000D02*
X23235000Y-109900000D01*
X23235000Y-111150000D02*
X24265000Y-111150000D01*
X17335000Y-110515000D02*
X17250000Y-110600000D01*
X23235000Y-110515000D02*
X17335000Y-110515000D01*
X23235000Y-110515000D02*
X23235000Y-111150000D01*
X23235000Y-109900000D02*
X23235000Y-110515000D01*
%TO.N,/IN6*%
X27235000Y-109900000D02*
X28100000Y-109900000D01*
X28100000Y-109900000D02*
X29300000Y-108700000D01*
X29300000Y-108700000D02*
X29300000Y-107900000D01*
X29775000Y-107425000D02*
X30865000Y-107425000D01*
X29300000Y-107900000D02*
X29775000Y-107425000D01*
%TO.N,Net-(C11-Pad1)*%
X25235000Y-109900000D02*
X25235000Y-111150000D01*
%TO.N,/LA3*%
X24265000Y-102350000D02*
X23235000Y-102350000D01*
X23235000Y-103600000D02*
X24265000Y-103600000D01*
X17265000Y-102965000D02*
X17250000Y-102980000D01*
X23235000Y-102965000D02*
X17265000Y-102965000D01*
X23235000Y-102965000D02*
X23235000Y-103600000D01*
X23235000Y-102350000D02*
X23235000Y-102965000D01*
%TO.N,/IN3*%
X30850000Y-103600000D02*
X30865000Y-103615000D01*
X27235000Y-103600000D02*
X30850000Y-103600000D01*
%TO.N,Net-(C13-Pad1)*%
X25250000Y-103615000D02*
X25235000Y-103600000D01*
X25235000Y-102350000D02*
X25235000Y-103600000D01*
%TO.N,/LA7*%
X24265000Y-112400000D02*
X23235000Y-112400000D01*
X23235000Y-113650000D02*
X24265000Y-113650000D01*
X17375000Y-113015000D02*
X17250000Y-113140000D01*
X23235000Y-113015000D02*
X17375000Y-113015000D01*
X23235000Y-113015000D02*
X23235000Y-113650000D01*
X23235000Y-112400000D02*
X23235000Y-113015000D01*
%TO.N,/IN7*%
X30865000Y-109935000D02*
X30865000Y-108695000D01*
X27235000Y-112400000D02*
X28400000Y-112400000D01*
X28400000Y-112400000D02*
X30865000Y-109935000D01*
%TO.N,Net-(C1-Pad1)*%
X25235000Y-96100000D02*
X26265000Y-96100000D01*
%TO.N,Net-(C3-Pad1)*%
X25235000Y-104900000D02*
X26265000Y-104900000D01*
%TO.N,Net-(C9-Pad1)*%
X25235000Y-101100000D02*
X26265000Y-101100000D01*
%TO.N,Net-(C13-Pad1)*%
X25235000Y-103600000D02*
X26265000Y-103600000D01*
%TO.N,Net-(C15-Pad1)*%
X26250000Y-112400000D02*
X25235000Y-112400000D01*
X25235000Y-112400000D02*
X25235000Y-113650000D01*
%TD*%
M02*
