%TF.GenerationSoftware,KiCad,Pcbnew,5.1.6-c6e7f7d~87~ubuntu18.04.1*%
%TF.CreationDate,2020-10-17T23:49:05-07:00*%
%TF.ProjectId,LA_Adapter,4c415f41-6461-4707-9465-722e6b696361,rev?*%
%TF.SameCoordinates,Original*%
%TF.FileFunction,Copper,L1,Top*%
%TF.FilePolarity,Positive*%
%FSLAX46Y46*%
G04 Gerber Fmt 4.6, Leading zero omitted, Abs format (unit mm)*
G04 Created by KiCad (PCBNEW 5.1.6-c6e7f7d~87~ubuntu18.04.1) date 2020-10-17 23:49:05*
%MOMM*%
%LPD*%
G01*
G04 APERTURE LIST*
%TA.AperFunction,ComponentPad*%
%ADD10C,1.100000*%
%TD*%
%TA.AperFunction,SMDPad,CuDef*%
%ADD11R,5.000000X2.000000*%
%TD*%
%TA.AperFunction,ViaPad*%
%ADD12C,0.600000*%
%TD*%
%TA.AperFunction,Conductor*%
%ADD13C,0.200000*%
%TD*%
G04 APERTURE END LIST*
D10*
%TO.P,J2,16*%
%TO.N,/IN0*%
X30865000Y-99805000D03*
%TO.P,J2,15*%
%TO.N,GND*%
X32135000Y-99805000D03*
%TO.P,J2,14*%
%TO.N,/IN1*%
X30865000Y-101075000D03*
%TO.P,J2,13*%
%TO.N,GND*%
X32135000Y-101075000D03*
%TO.P,J2,12*%
%TO.N,/IN2*%
X30865000Y-102345000D03*
%TO.P,J2,11*%
%TO.N,GND*%
X32135000Y-102345000D03*
%TO.P,J2,10*%
%TO.N,/IN3*%
X30865000Y-103615000D03*
%TO.P,J2,9*%
%TO.N,GND*%
X32135000Y-103615000D03*
%TO.P,J2,8*%
%TO.N,/IN4*%
X30865000Y-104885000D03*
%TO.P,J2,7*%
%TO.N,GND*%
X32135000Y-104885000D03*
%TO.P,J2,6*%
%TO.N,/IN5*%
X30865000Y-106155000D03*
%TO.P,J2,5*%
%TO.N,GND*%
X32135000Y-106155000D03*
%TO.P,J2,4*%
%TO.N,/IN6*%
X30865000Y-107425000D03*
%TO.P,J2,3*%
%TO.N,GND*%
X32135000Y-107425000D03*
%TO.P,J2,2*%
%TO.N,/IN7*%
X30865000Y-108695000D03*
%TO.P,J2,1*%
%TO.N,GND*%
X32135000Y-108695000D03*
%TD*%
D11*
%TO.P,J1,15*%
%TO.N,GND*%
X17250000Y-113140000D03*
%TO.P,J1,13*%
X17250000Y-110600000D03*
%TO.P,J1,11*%
X17250000Y-108060000D03*
%TO.P,J1,9*%
X17250000Y-105520000D03*
%TO.P,J1,7*%
X17250000Y-102980000D03*
%TO.P,J1,5*%
X17250000Y-100440000D03*
%TO.P,J1,3*%
X17250000Y-97900000D03*
%TO.P,J1,1*%
X17250000Y-95360000D03*
%TD*%
D12*
%TO.N,GND*%
X21450000Y-94850000D03*
X21450000Y-96100000D03*
X21450000Y-97350000D03*
X21450000Y-98600000D03*
X21450000Y-99850000D03*
X21450000Y-101100000D03*
X21450000Y-102350000D03*
X21450000Y-103600000D03*
X21450000Y-104900000D03*
X21450000Y-106150000D03*
X21450000Y-107400000D03*
X21450000Y-108650000D03*
X21450000Y-109900000D03*
X21450000Y-111150000D03*
X21450000Y-112400000D03*
X21450000Y-113650000D03*
%TD*%
D13*
%TO.N,GND*%
G36*
X34775000Y-116525000D02*
G01*
X28175000Y-116525000D01*
X28175000Y-115424212D01*
X28172772Y-115401592D01*
X28172815Y-115395435D01*
X28172100Y-115388140D01*
X28151699Y-115194043D01*
X28142132Y-115147437D01*
X28133215Y-115100693D01*
X28131096Y-115093676D01*
X28073384Y-114907238D01*
X28054955Y-114863398D01*
X28037120Y-114819254D01*
X28033679Y-114812782D01*
X27940854Y-114641105D01*
X27914239Y-114601646D01*
X27888190Y-114561839D01*
X27883557Y-114556158D01*
X27759153Y-114405781D01*
X27725391Y-114372254D01*
X27692098Y-114338256D01*
X27686449Y-114333583D01*
X27535207Y-114210233D01*
X27495569Y-114183898D01*
X27456312Y-114157018D01*
X27449864Y-114153531D01*
X27277542Y-114061906D01*
X27233539Y-114043770D01*
X27189814Y-114025029D01*
X27182812Y-114022861D01*
X26995975Y-113966452D01*
X26949270Y-113957204D01*
X26902755Y-113947317D01*
X26895465Y-113946551D01*
X26701232Y-113927506D01*
X26701231Y-113927506D01*
X26675788Y-113925000D01*
X14775000Y-113925000D01*
X14775000Y-99701584D01*
X29815000Y-99701584D01*
X29815000Y-99908416D01*
X29855350Y-100111274D01*
X29934502Y-100302362D01*
X30026468Y-100440000D01*
X29934502Y-100577638D01*
X29855350Y-100768726D01*
X29815000Y-100971584D01*
X29815000Y-101178416D01*
X29855350Y-101381274D01*
X29934502Y-101572362D01*
X30026468Y-101710000D01*
X29934502Y-101847638D01*
X29855350Y-102038726D01*
X29815000Y-102241584D01*
X29815000Y-102448416D01*
X29855350Y-102651274D01*
X29934502Y-102842362D01*
X30026468Y-102980000D01*
X29934502Y-103117638D01*
X29855350Y-103308726D01*
X29815000Y-103511584D01*
X29815000Y-103718416D01*
X29855350Y-103921274D01*
X29934502Y-104112362D01*
X30026468Y-104250000D01*
X29934502Y-104387638D01*
X29855350Y-104578726D01*
X29815000Y-104781584D01*
X29815000Y-104988416D01*
X29855350Y-105191274D01*
X29934502Y-105382362D01*
X30026468Y-105520000D01*
X29934502Y-105657638D01*
X29855350Y-105848726D01*
X29815000Y-106051584D01*
X29815000Y-106258416D01*
X29855350Y-106461274D01*
X29934502Y-106652362D01*
X30026468Y-106790000D01*
X29934502Y-106927638D01*
X29855350Y-107118726D01*
X29815000Y-107321584D01*
X29815000Y-107528416D01*
X29855350Y-107731274D01*
X29934502Y-107922362D01*
X30026468Y-108060000D01*
X29934502Y-108197638D01*
X29855350Y-108388726D01*
X29815000Y-108591584D01*
X29815000Y-108798416D01*
X29855350Y-109001274D01*
X29934502Y-109192362D01*
X30049411Y-109364336D01*
X30195664Y-109510589D01*
X30367638Y-109625498D01*
X30558726Y-109704650D01*
X30761584Y-109745000D01*
X30968416Y-109745000D01*
X31171274Y-109704650D01*
X31362362Y-109625498D01*
X31534336Y-109510589D01*
X31680589Y-109364336D01*
X31795498Y-109192362D01*
X31874650Y-109001274D01*
X31915000Y-108798416D01*
X31915000Y-108591584D01*
X31874650Y-108388726D01*
X31795498Y-108197638D01*
X31703532Y-108060000D01*
X31795498Y-107922362D01*
X31874650Y-107731274D01*
X31915000Y-107528416D01*
X31915000Y-107321584D01*
X31874650Y-107118726D01*
X31795498Y-106927638D01*
X31703532Y-106790000D01*
X31795498Y-106652362D01*
X31874650Y-106461274D01*
X31915000Y-106258416D01*
X31915000Y-106051584D01*
X31874650Y-105848726D01*
X31795498Y-105657638D01*
X31703532Y-105520000D01*
X31795498Y-105382362D01*
X31874650Y-105191274D01*
X31915000Y-104988416D01*
X31915000Y-104781584D01*
X31874650Y-104578726D01*
X31795498Y-104387638D01*
X31703532Y-104250000D01*
X31795498Y-104112362D01*
X31874650Y-103921274D01*
X31915000Y-103718416D01*
X31915000Y-103511584D01*
X31874650Y-103308726D01*
X31795498Y-103117638D01*
X31703532Y-102980000D01*
X31795498Y-102842362D01*
X31874650Y-102651274D01*
X31915000Y-102448416D01*
X31915000Y-102241584D01*
X31874650Y-102038726D01*
X31795498Y-101847638D01*
X31703532Y-101710000D01*
X31795498Y-101572362D01*
X31874650Y-101381274D01*
X31915000Y-101178416D01*
X31915000Y-100971584D01*
X31874650Y-100768726D01*
X31795498Y-100577638D01*
X31703532Y-100440000D01*
X31795498Y-100302362D01*
X31874650Y-100111274D01*
X31915000Y-99908416D01*
X31915000Y-99701584D01*
X31874650Y-99498726D01*
X31795498Y-99307638D01*
X31680589Y-99135664D01*
X31534336Y-98989411D01*
X31362362Y-98874502D01*
X31171274Y-98795350D01*
X30968416Y-98755000D01*
X30761584Y-98755000D01*
X30558726Y-98795350D01*
X30367638Y-98874502D01*
X30195664Y-98989411D01*
X30049411Y-99135664D01*
X29934502Y-99307638D01*
X29855350Y-99498726D01*
X29815000Y-99701584D01*
X14775000Y-99701584D01*
X14775000Y-94575000D01*
X26675788Y-94575000D01*
X26698408Y-94572772D01*
X26704565Y-94572815D01*
X26711860Y-94572100D01*
X26905957Y-94551699D01*
X26952563Y-94542132D01*
X26999307Y-94533215D01*
X27006324Y-94531096D01*
X27192762Y-94473384D01*
X27236602Y-94454955D01*
X27280746Y-94437120D01*
X27287218Y-94433679D01*
X27458895Y-94340854D01*
X27498338Y-94314249D01*
X27538161Y-94288190D01*
X27543841Y-94283557D01*
X27694219Y-94159153D01*
X27727727Y-94125410D01*
X27761745Y-94092098D01*
X27766417Y-94086449D01*
X27889767Y-93935207D01*
X27916102Y-93895569D01*
X27942982Y-93856312D01*
X27946469Y-93849864D01*
X28038094Y-93677542D01*
X28056231Y-93633539D01*
X28074971Y-93589814D01*
X28077139Y-93582811D01*
X28133548Y-93395975D01*
X28142793Y-93349284D01*
X28152683Y-93302756D01*
X28153449Y-93295466D01*
X28172494Y-93101232D01*
X28172494Y-93101231D01*
X28175000Y-93075788D01*
X28175000Y-91975000D01*
X34775001Y-91975000D01*
X34775000Y-116525000D01*
G37*
X34775000Y-116525000D02*
X28175000Y-116525000D01*
X28175000Y-115424212D01*
X28172772Y-115401592D01*
X28172815Y-115395435D01*
X28172100Y-115388140D01*
X28151699Y-115194043D01*
X28142132Y-115147437D01*
X28133215Y-115100693D01*
X28131096Y-115093676D01*
X28073384Y-114907238D01*
X28054955Y-114863398D01*
X28037120Y-114819254D01*
X28033679Y-114812782D01*
X27940854Y-114641105D01*
X27914239Y-114601646D01*
X27888190Y-114561839D01*
X27883557Y-114556158D01*
X27759153Y-114405781D01*
X27725391Y-114372254D01*
X27692098Y-114338256D01*
X27686449Y-114333583D01*
X27535207Y-114210233D01*
X27495569Y-114183898D01*
X27456312Y-114157018D01*
X27449864Y-114153531D01*
X27277542Y-114061906D01*
X27233539Y-114043770D01*
X27189814Y-114025029D01*
X27182812Y-114022861D01*
X26995975Y-113966452D01*
X26949270Y-113957204D01*
X26902755Y-113947317D01*
X26895465Y-113946551D01*
X26701232Y-113927506D01*
X26701231Y-113927506D01*
X26675788Y-113925000D01*
X14775000Y-113925000D01*
X14775000Y-99701584D01*
X29815000Y-99701584D01*
X29815000Y-99908416D01*
X29855350Y-100111274D01*
X29934502Y-100302362D01*
X30026468Y-100440000D01*
X29934502Y-100577638D01*
X29855350Y-100768726D01*
X29815000Y-100971584D01*
X29815000Y-101178416D01*
X29855350Y-101381274D01*
X29934502Y-101572362D01*
X30026468Y-101710000D01*
X29934502Y-101847638D01*
X29855350Y-102038726D01*
X29815000Y-102241584D01*
X29815000Y-102448416D01*
X29855350Y-102651274D01*
X29934502Y-102842362D01*
X30026468Y-102980000D01*
X29934502Y-103117638D01*
X29855350Y-103308726D01*
X29815000Y-103511584D01*
X29815000Y-103718416D01*
X29855350Y-103921274D01*
X29934502Y-104112362D01*
X30026468Y-104250000D01*
X29934502Y-104387638D01*
X29855350Y-104578726D01*
X29815000Y-104781584D01*
X29815000Y-104988416D01*
X29855350Y-105191274D01*
X29934502Y-105382362D01*
X30026468Y-105520000D01*
X29934502Y-105657638D01*
X29855350Y-105848726D01*
X29815000Y-106051584D01*
X29815000Y-106258416D01*
X29855350Y-106461274D01*
X29934502Y-106652362D01*
X30026468Y-106790000D01*
X29934502Y-106927638D01*
X29855350Y-107118726D01*
X29815000Y-107321584D01*
X29815000Y-107528416D01*
X29855350Y-107731274D01*
X29934502Y-107922362D01*
X30026468Y-108060000D01*
X29934502Y-108197638D01*
X29855350Y-108388726D01*
X29815000Y-108591584D01*
X29815000Y-108798416D01*
X29855350Y-109001274D01*
X29934502Y-109192362D01*
X30049411Y-109364336D01*
X30195664Y-109510589D01*
X30367638Y-109625498D01*
X30558726Y-109704650D01*
X30761584Y-109745000D01*
X30968416Y-109745000D01*
X31171274Y-109704650D01*
X31362362Y-109625498D01*
X31534336Y-109510589D01*
X31680589Y-109364336D01*
X31795498Y-109192362D01*
X31874650Y-109001274D01*
X31915000Y-108798416D01*
X31915000Y-108591584D01*
X31874650Y-108388726D01*
X31795498Y-108197638D01*
X31703532Y-108060000D01*
X31795498Y-107922362D01*
X31874650Y-107731274D01*
X31915000Y-107528416D01*
X31915000Y-107321584D01*
X31874650Y-107118726D01*
X31795498Y-106927638D01*
X31703532Y-106790000D01*
X31795498Y-106652362D01*
X31874650Y-106461274D01*
X31915000Y-106258416D01*
X31915000Y-106051584D01*
X31874650Y-105848726D01*
X31795498Y-105657638D01*
X31703532Y-105520000D01*
X31795498Y-105382362D01*
X31874650Y-105191274D01*
X31915000Y-104988416D01*
X31915000Y-104781584D01*
X31874650Y-104578726D01*
X31795498Y-104387638D01*
X31703532Y-104250000D01*
X31795498Y-104112362D01*
X31874650Y-103921274D01*
X31915000Y-103718416D01*
X31915000Y-103511584D01*
X31874650Y-103308726D01*
X31795498Y-103117638D01*
X31703532Y-102980000D01*
X31795498Y-102842362D01*
X31874650Y-102651274D01*
X31915000Y-102448416D01*
X31915000Y-102241584D01*
X31874650Y-102038726D01*
X31795498Y-101847638D01*
X31703532Y-101710000D01*
X31795498Y-101572362D01*
X31874650Y-101381274D01*
X31915000Y-101178416D01*
X31915000Y-100971584D01*
X31874650Y-100768726D01*
X31795498Y-100577638D01*
X31703532Y-100440000D01*
X31795498Y-100302362D01*
X31874650Y-100111274D01*
X31915000Y-99908416D01*
X31915000Y-99701584D01*
X31874650Y-99498726D01*
X31795498Y-99307638D01*
X31680589Y-99135664D01*
X31534336Y-98989411D01*
X31362362Y-98874502D01*
X31171274Y-98795350D01*
X30968416Y-98755000D01*
X30761584Y-98755000D01*
X30558726Y-98795350D01*
X30367638Y-98874502D01*
X30195664Y-98989411D01*
X30049411Y-99135664D01*
X29934502Y-99307638D01*
X29855350Y-99498726D01*
X29815000Y-99701584D01*
X14775000Y-99701584D01*
X14775000Y-94575000D01*
X26675788Y-94575000D01*
X26698408Y-94572772D01*
X26704565Y-94572815D01*
X26711860Y-94572100D01*
X26905957Y-94551699D01*
X26952563Y-94542132D01*
X26999307Y-94533215D01*
X27006324Y-94531096D01*
X27192762Y-94473384D01*
X27236602Y-94454955D01*
X27280746Y-94437120D01*
X27287218Y-94433679D01*
X27458895Y-94340854D01*
X27498338Y-94314249D01*
X27538161Y-94288190D01*
X27543841Y-94283557D01*
X27694219Y-94159153D01*
X27727727Y-94125410D01*
X27761745Y-94092098D01*
X27766417Y-94086449D01*
X27889767Y-93935207D01*
X27916102Y-93895569D01*
X27942982Y-93856312D01*
X27946469Y-93849864D01*
X28038094Y-93677542D01*
X28056231Y-93633539D01*
X28074971Y-93589814D01*
X28077139Y-93582811D01*
X28133548Y-93395975D01*
X28142793Y-93349284D01*
X28152683Y-93302756D01*
X28153449Y-93295466D01*
X28172494Y-93101232D01*
X28172494Y-93101231D01*
X28175000Y-93075788D01*
X28175000Y-91975000D01*
X34775001Y-91975000D01*
X34775000Y-116525000D01*
%TD*%
M02*
