%TF.GenerationSoftware,KiCad,Pcbnew,5.1.6-c6e7f7d~87~ubuntu18.04.1*%
%TF.CreationDate,2020-10-17T23:49:05-07:00*%
%TF.ProjectId,LA_Adapter,4c415f41-6461-4707-9465-722e6b696361,rev?*%
%TF.SameCoordinates,Original*%
%TF.FileFunction,Paste,Bot*%
%TF.FilePolarity,Positive*%
%FSLAX46Y46*%
G04 Gerber Fmt 4.6, Leading zero omitted, Abs format (unit mm)*
G04 Created by KiCad (PCBNEW 5.1.6-c6e7f7d~87~ubuntu18.04.1) date 2020-10-17 23:49:05*
%MOMM*%
%LPD*%
G01*
G04 APERTURE LIST*
G04 APERTURE END LIST*
%TO.C,R24*%
G36*
G01*
X26940000Y-112572500D02*
X26940000Y-112227500D01*
G75*
G02*
X27087500Y-112080000I147500J0D01*
G01*
X27382500Y-112080000D01*
G75*
G02*
X27530000Y-112227500I0J-147500D01*
G01*
X27530000Y-112572500D01*
G75*
G02*
X27382500Y-112720000I-147500J0D01*
G01*
X27087500Y-112720000D01*
G75*
G02*
X26940000Y-112572500I0J147500D01*
G01*
G37*
G36*
G01*
X25970000Y-112572500D02*
X25970000Y-112227500D01*
G75*
G02*
X26117500Y-112080000I147500J0D01*
G01*
X26412500Y-112080000D01*
G75*
G02*
X26560000Y-112227500I0J-147500D01*
G01*
X26560000Y-112572500D01*
G75*
G02*
X26412500Y-112720000I-147500J0D01*
G01*
X26117500Y-112720000D01*
G75*
G02*
X25970000Y-112572500I0J147500D01*
G01*
G37*
%TD*%
%TO.C,R23*%
G36*
G01*
X26940000Y-103772500D02*
X26940000Y-103427500D01*
G75*
G02*
X27087500Y-103280000I147500J0D01*
G01*
X27382500Y-103280000D01*
G75*
G02*
X27530000Y-103427500I0J-147500D01*
G01*
X27530000Y-103772500D01*
G75*
G02*
X27382500Y-103920000I-147500J0D01*
G01*
X27087500Y-103920000D01*
G75*
G02*
X26940000Y-103772500I0J147500D01*
G01*
G37*
G36*
G01*
X25970000Y-103772500D02*
X25970000Y-103427500D01*
G75*
G02*
X26117500Y-103280000I147500J0D01*
G01*
X26412500Y-103280000D01*
G75*
G02*
X26560000Y-103427500I0J-147500D01*
G01*
X26560000Y-103772500D01*
G75*
G02*
X26412500Y-103920000I-147500J0D01*
G01*
X26117500Y-103920000D01*
G75*
G02*
X25970000Y-103772500I0J147500D01*
G01*
G37*
%TD*%
%TO.C,R22*%
G36*
G01*
X26940000Y-110072500D02*
X26940000Y-109727500D01*
G75*
G02*
X27087500Y-109580000I147500J0D01*
G01*
X27382500Y-109580000D01*
G75*
G02*
X27530000Y-109727500I0J-147500D01*
G01*
X27530000Y-110072500D01*
G75*
G02*
X27382500Y-110220000I-147500J0D01*
G01*
X27087500Y-110220000D01*
G75*
G02*
X26940000Y-110072500I0J147500D01*
G01*
G37*
G36*
G01*
X25970000Y-110072500D02*
X25970000Y-109727500D01*
G75*
G02*
X26117500Y-109580000I147500J0D01*
G01*
X26412500Y-109580000D01*
G75*
G02*
X26560000Y-109727500I0J-147500D01*
G01*
X26560000Y-110072500D01*
G75*
G02*
X26412500Y-110220000I-147500J0D01*
G01*
X26117500Y-110220000D01*
G75*
G02*
X25970000Y-110072500I0J147500D01*
G01*
G37*
%TD*%
%TO.C,R21*%
G36*
G01*
X26940000Y-101272500D02*
X26940000Y-100927500D01*
G75*
G02*
X27087500Y-100780000I147500J0D01*
G01*
X27382500Y-100780000D01*
G75*
G02*
X27530000Y-100927500I0J-147500D01*
G01*
X27530000Y-101272500D01*
G75*
G02*
X27382500Y-101420000I-147500J0D01*
G01*
X27087500Y-101420000D01*
G75*
G02*
X26940000Y-101272500I0J147500D01*
G01*
G37*
G36*
G01*
X25970000Y-101272500D02*
X25970000Y-100927500D01*
G75*
G02*
X26117500Y-100780000I147500J0D01*
G01*
X26412500Y-100780000D01*
G75*
G02*
X26560000Y-100927500I0J-147500D01*
G01*
X26560000Y-101272500D01*
G75*
G02*
X26412500Y-101420000I-147500J0D01*
G01*
X26117500Y-101420000D01*
G75*
G02*
X25970000Y-101272500I0J147500D01*
G01*
G37*
%TD*%
%TO.C,R20*%
G36*
G01*
X26940000Y-107572500D02*
X26940000Y-107227500D01*
G75*
G02*
X27087500Y-107080000I147500J0D01*
G01*
X27382500Y-107080000D01*
G75*
G02*
X27530000Y-107227500I0J-147500D01*
G01*
X27530000Y-107572500D01*
G75*
G02*
X27382500Y-107720000I-147500J0D01*
G01*
X27087500Y-107720000D01*
G75*
G02*
X26940000Y-107572500I0J147500D01*
G01*
G37*
G36*
G01*
X25970000Y-107572500D02*
X25970000Y-107227500D01*
G75*
G02*
X26117500Y-107080000I147500J0D01*
G01*
X26412500Y-107080000D01*
G75*
G02*
X26560000Y-107227500I0J-147500D01*
G01*
X26560000Y-107572500D01*
G75*
G02*
X26412500Y-107720000I-147500J0D01*
G01*
X26117500Y-107720000D01*
G75*
G02*
X25970000Y-107572500I0J147500D01*
G01*
G37*
%TD*%
%TO.C,R19*%
G36*
G01*
X26940000Y-98772500D02*
X26940000Y-98427500D01*
G75*
G02*
X27087500Y-98280000I147500J0D01*
G01*
X27382500Y-98280000D01*
G75*
G02*
X27530000Y-98427500I0J-147500D01*
G01*
X27530000Y-98772500D01*
G75*
G02*
X27382500Y-98920000I-147500J0D01*
G01*
X27087500Y-98920000D01*
G75*
G02*
X26940000Y-98772500I0J147500D01*
G01*
G37*
G36*
G01*
X25970000Y-98772500D02*
X25970000Y-98427500D01*
G75*
G02*
X26117500Y-98280000I147500J0D01*
G01*
X26412500Y-98280000D01*
G75*
G02*
X26560000Y-98427500I0J-147500D01*
G01*
X26560000Y-98772500D01*
G75*
G02*
X26412500Y-98920000I-147500J0D01*
G01*
X26117500Y-98920000D01*
G75*
G02*
X25970000Y-98772500I0J147500D01*
G01*
G37*
%TD*%
%TO.C,R18*%
G36*
G01*
X26940000Y-105072500D02*
X26940000Y-104727500D01*
G75*
G02*
X27087500Y-104580000I147500J0D01*
G01*
X27382500Y-104580000D01*
G75*
G02*
X27530000Y-104727500I0J-147500D01*
G01*
X27530000Y-105072500D01*
G75*
G02*
X27382500Y-105220000I-147500J0D01*
G01*
X27087500Y-105220000D01*
G75*
G02*
X26940000Y-105072500I0J147500D01*
G01*
G37*
G36*
G01*
X25970000Y-105072500D02*
X25970000Y-104727500D01*
G75*
G02*
X26117500Y-104580000I147500J0D01*
G01*
X26412500Y-104580000D01*
G75*
G02*
X26560000Y-104727500I0J-147500D01*
G01*
X26560000Y-105072500D01*
G75*
G02*
X26412500Y-105220000I-147500J0D01*
G01*
X26117500Y-105220000D01*
G75*
G02*
X25970000Y-105072500I0J147500D01*
G01*
G37*
%TD*%
%TO.C,R17*%
G36*
G01*
X26940000Y-96272500D02*
X26940000Y-95927500D01*
G75*
G02*
X27087500Y-95780000I147500J0D01*
G01*
X27382500Y-95780000D01*
G75*
G02*
X27530000Y-95927500I0J-147500D01*
G01*
X27530000Y-96272500D01*
G75*
G02*
X27382500Y-96420000I-147500J0D01*
G01*
X27087500Y-96420000D01*
G75*
G02*
X26940000Y-96272500I0J147500D01*
G01*
G37*
G36*
G01*
X25970000Y-96272500D02*
X25970000Y-95927500D01*
G75*
G02*
X26117500Y-95780000I147500J0D01*
G01*
X26412500Y-95780000D01*
G75*
G02*
X26560000Y-95927500I0J-147500D01*
G01*
X26560000Y-96272500D01*
G75*
G02*
X26412500Y-96420000I-147500J0D01*
G01*
X26117500Y-96420000D01*
G75*
G02*
X25970000Y-96272500I0J147500D01*
G01*
G37*
%TD*%
%TO.C,R16*%
G36*
G01*
X22560000Y-113477500D02*
X22560000Y-113822500D01*
G75*
G02*
X22412500Y-113970000I-147500J0D01*
G01*
X22117500Y-113970000D01*
G75*
G02*
X21970000Y-113822500I0J147500D01*
G01*
X21970000Y-113477500D01*
G75*
G02*
X22117500Y-113330000I147500J0D01*
G01*
X22412500Y-113330000D01*
G75*
G02*
X22560000Y-113477500I0J-147500D01*
G01*
G37*
G36*
G01*
X23530000Y-113477500D02*
X23530000Y-113822500D01*
G75*
G02*
X23382500Y-113970000I-147500J0D01*
G01*
X23087500Y-113970000D01*
G75*
G02*
X22940000Y-113822500I0J147500D01*
G01*
X22940000Y-113477500D01*
G75*
G02*
X23087500Y-113330000I147500J0D01*
G01*
X23382500Y-113330000D01*
G75*
G02*
X23530000Y-113477500I0J-147500D01*
G01*
G37*
%TD*%
%TO.C,R15*%
G36*
G01*
X24560000Y-113477500D02*
X24560000Y-113822500D01*
G75*
G02*
X24412500Y-113970000I-147500J0D01*
G01*
X24117500Y-113970000D01*
G75*
G02*
X23970000Y-113822500I0J147500D01*
G01*
X23970000Y-113477500D01*
G75*
G02*
X24117500Y-113330000I147500J0D01*
G01*
X24412500Y-113330000D01*
G75*
G02*
X24560000Y-113477500I0J-147500D01*
G01*
G37*
G36*
G01*
X25530000Y-113477500D02*
X25530000Y-113822500D01*
G75*
G02*
X25382500Y-113970000I-147500J0D01*
G01*
X25087500Y-113970000D01*
G75*
G02*
X24940000Y-113822500I0J147500D01*
G01*
X24940000Y-113477500D01*
G75*
G02*
X25087500Y-113330000I147500J0D01*
G01*
X25382500Y-113330000D01*
G75*
G02*
X25530000Y-113477500I0J-147500D01*
G01*
G37*
%TD*%
%TO.C,R14*%
G36*
G01*
X22560000Y-103427500D02*
X22560000Y-103772500D01*
G75*
G02*
X22412500Y-103920000I-147500J0D01*
G01*
X22117500Y-103920000D01*
G75*
G02*
X21970000Y-103772500I0J147500D01*
G01*
X21970000Y-103427500D01*
G75*
G02*
X22117500Y-103280000I147500J0D01*
G01*
X22412500Y-103280000D01*
G75*
G02*
X22560000Y-103427500I0J-147500D01*
G01*
G37*
G36*
G01*
X23530000Y-103427500D02*
X23530000Y-103772500D01*
G75*
G02*
X23382500Y-103920000I-147500J0D01*
G01*
X23087500Y-103920000D01*
G75*
G02*
X22940000Y-103772500I0J147500D01*
G01*
X22940000Y-103427500D01*
G75*
G02*
X23087500Y-103280000I147500J0D01*
G01*
X23382500Y-103280000D01*
G75*
G02*
X23530000Y-103427500I0J-147500D01*
G01*
G37*
%TD*%
%TO.C,R13*%
G36*
G01*
X24560000Y-103427500D02*
X24560000Y-103772500D01*
G75*
G02*
X24412500Y-103920000I-147500J0D01*
G01*
X24117500Y-103920000D01*
G75*
G02*
X23970000Y-103772500I0J147500D01*
G01*
X23970000Y-103427500D01*
G75*
G02*
X24117500Y-103280000I147500J0D01*
G01*
X24412500Y-103280000D01*
G75*
G02*
X24560000Y-103427500I0J-147500D01*
G01*
G37*
G36*
G01*
X25530000Y-103427500D02*
X25530000Y-103772500D01*
G75*
G02*
X25382500Y-103920000I-147500J0D01*
G01*
X25087500Y-103920000D01*
G75*
G02*
X24940000Y-103772500I0J147500D01*
G01*
X24940000Y-103427500D01*
G75*
G02*
X25087500Y-103280000I147500J0D01*
G01*
X25382500Y-103280000D01*
G75*
G02*
X25530000Y-103427500I0J-147500D01*
G01*
G37*
%TD*%
%TO.C,R12*%
G36*
G01*
X22560000Y-110977500D02*
X22560000Y-111322500D01*
G75*
G02*
X22412500Y-111470000I-147500J0D01*
G01*
X22117500Y-111470000D01*
G75*
G02*
X21970000Y-111322500I0J147500D01*
G01*
X21970000Y-110977500D01*
G75*
G02*
X22117500Y-110830000I147500J0D01*
G01*
X22412500Y-110830000D01*
G75*
G02*
X22560000Y-110977500I0J-147500D01*
G01*
G37*
G36*
G01*
X23530000Y-110977500D02*
X23530000Y-111322500D01*
G75*
G02*
X23382500Y-111470000I-147500J0D01*
G01*
X23087500Y-111470000D01*
G75*
G02*
X22940000Y-111322500I0J147500D01*
G01*
X22940000Y-110977500D01*
G75*
G02*
X23087500Y-110830000I147500J0D01*
G01*
X23382500Y-110830000D01*
G75*
G02*
X23530000Y-110977500I0J-147500D01*
G01*
G37*
%TD*%
%TO.C,R11*%
G36*
G01*
X24560000Y-110977500D02*
X24560000Y-111322500D01*
G75*
G02*
X24412500Y-111470000I-147500J0D01*
G01*
X24117500Y-111470000D01*
G75*
G02*
X23970000Y-111322500I0J147500D01*
G01*
X23970000Y-110977500D01*
G75*
G02*
X24117500Y-110830000I147500J0D01*
G01*
X24412500Y-110830000D01*
G75*
G02*
X24560000Y-110977500I0J-147500D01*
G01*
G37*
G36*
G01*
X25530000Y-110977500D02*
X25530000Y-111322500D01*
G75*
G02*
X25382500Y-111470000I-147500J0D01*
G01*
X25087500Y-111470000D01*
G75*
G02*
X24940000Y-111322500I0J147500D01*
G01*
X24940000Y-110977500D01*
G75*
G02*
X25087500Y-110830000I147500J0D01*
G01*
X25382500Y-110830000D01*
G75*
G02*
X25530000Y-110977500I0J-147500D01*
G01*
G37*
%TD*%
%TO.C,R10*%
G36*
G01*
X22560000Y-100927500D02*
X22560000Y-101272500D01*
G75*
G02*
X22412500Y-101420000I-147500J0D01*
G01*
X22117500Y-101420000D01*
G75*
G02*
X21970000Y-101272500I0J147500D01*
G01*
X21970000Y-100927500D01*
G75*
G02*
X22117500Y-100780000I147500J0D01*
G01*
X22412500Y-100780000D01*
G75*
G02*
X22560000Y-100927500I0J-147500D01*
G01*
G37*
G36*
G01*
X23530000Y-100927500D02*
X23530000Y-101272500D01*
G75*
G02*
X23382500Y-101420000I-147500J0D01*
G01*
X23087500Y-101420000D01*
G75*
G02*
X22940000Y-101272500I0J147500D01*
G01*
X22940000Y-100927500D01*
G75*
G02*
X23087500Y-100780000I147500J0D01*
G01*
X23382500Y-100780000D01*
G75*
G02*
X23530000Y-100927500I0J-147500D01*
G01*
G37*
%TD*%
%TO.C,R9*%
G36*
G01*
X24560000Y-100927500D02*
X24560000Y-101272500D01*
G75*
G02*
X24412500Y-101420000I-147500J0D01*
G01*
X24117500Y-101420000D01*
G75*
G02*
X23970000Y-101272500I0J147500D01*
G01*
X23970000Y-100927500D01*
G75*
G02*
X24117500Y-100780000I147500J0D01*
G01*
X24412500Y-100780000D01*
G75*
G02*
X24560000Y-100927500I0J-147500D01*
G01*
G37*
G36*
G01*
X25530000Y-100927500D02*
X25530000Y-101272500D01*
G75*
G02*
X25382500Y-101420000I-147500J0D01*
G01*
X25087500Y-101420000D01*
G75*
G02*
X24940000Y-101272500I0J147500D01*
G01*
X24940000Y-100927500D01*
G75*
G02*
X25087500Y-100780000I147500J0D01*
G01*
X25382500Y-100780000D01*
G75*
G02*
X25530000Y-100927500I0J-147500D01*
G01*
G37*
%TD*%
%TO.C,R8*%
G36*
G01*
X22560000Y-108477500D02*
X22560000Y-108822500D01*
G75*
G02*
X22412500Y-108970000I-147500J0D01*
G01*
X22117500Y-108970000D01*
G75*
G02*
X21970000Y-108822500I0J147500D01*
G01*
X21970000Y-108477500D01*
G75*
G02*
X22117500Y-108330000I147500J0D01*
G01*
X22412500Y-108330000D01*
G75*
G02*
X22560000Y-108477500I0J-147500D01*
G01*
G37*
G36*
G01*
X23530000Y-108477500D02*
X23530000Y-108822500D01*
G75*
G02*
X23382500Y-108970000I-147500J0D01*
G01*
X23087500Y-108970000D01*
G75*
G02*
X22940000Y-108822500I0J147500D01*
G01*
X22940000Y-108477500D01*
G75*
G02*
X23087500Y-108330000I147500J0D01*
G01*
X23382500Y-108330000D01*
G75*
G02*
X23530000Y-108477500I0J-147500D01*
G01*
G37*
%TD*%
%TO.C,R7*%
G36*
G01*
X24560000Y-108477500D02*
X24560000Y-108822500D01*
G75*
G02*
X24412500Y-108970000I-147500J0D01*
G01*
X24117500Y-108970000D01*
G75*
G02*
X23970000Y-108822500I0J147500D01*
G01*
X23970000Y-108477500D01*
G75*
G02*
X24117500Y-108330000I147500J0D01*
G01*
X24412500Y-108330000D01*
G75*
G02*
X24560000Y-108477500I0J-147500D01*
G01*
G37*
G36*
G01*
X25530000Y-108477500D02*
X25530000Y-108822500D01*
G75*
G02*
X25382500Y-108970000I-147500J0D01*
G01*
X25087500Y-108970000D01*
G75*
G02*
X24940000Y-108822500I0J147500D01*
G01*
X24940000Y-108477500D01*
G75*
G02*
X25087500Y-108330000I147500J0D01*
G01*
X25382500Y-108330000D01*
G75*
G02*
X25530000Y-108477500I0J-147500D01*
G01*
G37*
%TD*%
%TO.C,R6*%
G36*
G01*
X22560000Y-98427500D02*
X22560000Y-98772500D01*
G75*
G02*
X22412500Y-98920000I-147500J0D01*
G01*
X22117500Y-98920000D01*
G75*
G02*
X21970000Y-98772500I0J147500D01*
G01*
X21970000Y-98427500D01*
G75*
G02*
X22117500Y-98280000I147500J0D01*
G01*
X22412500Y-98280000D01*
G75*
G02*
X22560000Y-98427500I0J-147500D01*
G01*
G37*
G36*
G01*
X23530000Y-98427500D02*
X23530000Y-98772500D01*
G75*
G02*
X23382500Y-98920000I-147500J0D01*
G01*
X23087500Y-98920000D01*
G75*
G02*
X22940000Y-98772500I0J147500D01*
G01*
X22940000Y-98427500D01*
G75*
G02*
X23087500Y-98280000I147500J0D01*
G01*
X23382500Y-98280000D01*
G75*
G02*
X23530000Y-98427500I0J-147500D01*
G01*
G37*
%TD*%
%TO.C,R5*%
G36*
G01*
X24560000Y-98427500D02*
X24560000Y-98772500D01*
G75*
G02*
X24412500Y-98920000I-147500J0D01*
G01*
X24117500Y-98920000D01*
G75*
G02*
X23970000Y-98772500I0J147500D01*
G01*
X23970000Y-98427500D01*
G75*
G02*
X24117500Y-98280000I147500J0D01*
G01*
X24412500Y-98280000D01*
G75*
G02*
X24560000Y-98427500I0J-147500D01*
G01*
G37*
G36*
G01*
X25530000Y-98427500D02*
X25530000Y-98772500D01*
G75*
G02*
X25382500Y-98920000I-147500J0D01*
G01*
X25087500Y-98920000D01*
G75*
G02*
X24940000Y-98772500I0J147500D01*
G01*
X24940000Y-98427500D01*
G75*
G02*
X25087500Y-98280000I147500J0D01*
G01*
X25382500Y-98280000D01*
G75*
G02*
X25530000Y-98427500I0J-147500D01*
G01*
G37*
%TD*%
%TO.C,R4*%
G36*
G01*
X22560000Y-105977500D02*
X22560000Y-106322500D01*
G75*
G02*
X22412500Y-106470000I-147500J0D01*
G01*
X22117500Y-106470000D01*
G75*
G02*
X21970000Y-106322500I0J147500D01*
G01*
X21970000Y-105977500D01*
G75*
G02*
X22117500Y-105830000I147500J0D01*
G01*
X22412500Y-105830000D01*
G75*
G02*
X22560000Y-105977500I0J-147500D01*
G01*
G37*
G36*
G01*
X23530000Y-105977500D02*
X23530000Y-106322500D01*
G75*
G02*
X23382500Y-106470000I-147500J0D01*
G01*
X23087500Y-106470000D01*
G75*
G02*
X22940000Y-106322500I0J147500D01*
G01*
X22940000Y-105977500D01*
G75*
G02*
X23087500Y-105830000I147500J0D01*
G01*
X23382500Y-105830000D01*
G75*
G02*
X23530000Y-105977500I0J-147500D01*
G01*
G37*
%TD*%
%TO.C,R3*%
G36*
G01*
X24560000Y-105977500D02*
X24560000Y-106322500D01*
G75*
G02*
X24412500Y-106470000I-147500J0D01*
G01*
X24117500Y-106470000D01*
G75*
G02*
X23970000Y-106322500I0J147500D01*
G01*
X23970000Y-105977500D01*
G75*
G02*
X24117500Y-105830000I147500J0D01*
G01*
X24412500Y-105830000D01*
G75*
G02*
X24560000Y-105977500I0J-147500D01*
G01*
G37*
G36*
G01*
X25530000Y-105977500D02*
X25530000Y-106322500D01*
G75*
G02*
X25382500Y-106470000I-147500J0D01*
G01*
X25087500Y-106470000D01*
G75*
G02*
X24940000Y-106322500I0J147500D01*
G01*
X24940000Y-105977500D01*
G75*
G02*
X25087500Y-105830000I147500J0D01*
G01*
X25382500Y-105830000D01*
G75*
G02*
X25530000Y-105977500I0J-147500D01*
G01*
G37*
%TD*%
%TO.C,R2*%
G36*
G01*
X22560000Y-95927500D02*
X22560000Y-96272500D01*
G75*
G02*
X22412500Y-96420000I-147500J0D01*
G01*
X22117500Y-96420000D01*
G75*
G02*
X21970000Y-96272500I0J147500D01*
G01*
X21970000Y-95927500D01*
G75*
G02*
X22117500Y-95780000I147500J0D01*
G01*
X22412500Y-95780000D01*
G75*
G02*
X22560000Y-95927500I0J-147500D01*
G01*
G37*
G36*
G01*
X23530000Y-95927500D02*
X23530000Y-96272500D01*
G75*
G02*
X23382500Y-96420000I-147500J0D01*
G01*
X23087500Y-96420000D01*
G75*
G02*
X22940000Y-96272500I0J147500D01*
G01*
X22940000Y-95927500D01*
G75*
G02*
X23087500Y-95780000I147500J0D01*
G01*
X23382500Y-95780000D01*
G75*
G02*
X23530000Y-95927500I0J-147500D01*
G01*
G37*
%TD*%
%TO.C,R1*%
G36*
G01*
X24560000Y-95927500D02*
X24560000Y-96272500D01*
G75*
G02*
X24412500Y-96420000I-147500J0D01*
G01*
X24117500Y-96420000D01*
G75*
G02*
X23970000Y-96272500I0J147500D01*
G01*
X23970000Y-95927500D01*
G75*
G02*
X24117500Y-95780000I147500J0D01*
G01*
X24412500Y-95780000D01*
G75*
G02*
X24560000Y-95927500I0J-147500D01*
G01*
G37*
G36*
G01*
X25530000Y-95927500D02*
X25530000Y-96272500D01*
G75*
G02*
X25382500Y-96420000I-147500J0D01*
G01*
X25087500Y-96420000D01*
G75*
G02*
X24940000Y-96272500I0J147500D01*
G01*
X24940000Y-95927500D01*
G75*
G02*
X25087500Y-95780000I147500J0D01*
G01*
X25382500Y-95780000D01*
G75*
G02*
X25530000Y-95927500I0J-147500D01*
G01*
G37*
%TD*%
%TO.C,C16*%
G36*
G01*
X22560000Y-112227500D02*
X22560000Y-112572500D01*
G75*
G02*
X22412500Y-112720000I-147500J0D01*
G01*
X22117500Y-112720000D01*
G75*
G02*
X21970000Y-112572500I0J147500D01*
G01*
X21970000Y-112227500D01*
G75*
G02*
X22117500Y-112080000I147500J0D01*
G01*
X22412500Y-112080000D01*
G75*
G02*
X22560000Y-112227500I0J-147500D01*
G01*
G37*
G36*
G01*
X23530000Y-112227500D02*
X23530000Y-112572500D01*
G75*
G02*
X23382500Y-112720000I-147500J0D01*
G01*
X23087500Y-112720000D01*
G75*
G02*
X22940000Y-112572500I0J147500D01*
G01*
X22940000Y-112227500D01*
G75*
G02*
X23087500Y-112080000I147500J0D01*
G01*
X23382500Y-112080000D01*
G75*
G02*
X23530000Y-112227500I0J-147500D01*
G01*
G37*
%TD*%
%TO.C,C15*%
G36*
G01*
X24560000Y-112227500D02*
X24560000Y-112572500D01*
G75*
G02*
X24412500Y-112720000I-147500J0D01*
G01*
X24117500Y-112720000D01*
G75*
G02*
X23970000Y-112572500I0J147500D01*
G01*
X23970000Y-112227500D01*
G75*
G02*
X24117500Y-112080000I147500J0D01*
G01*
X24412500Y-112080000D01*
G75*
G02*
X24560000Y-112227500I0J-147500D01*
G01*
G37*
G36*
G01*
X25530000Y-112227500D02*
X25530000Y-112572500D01*
G75*
G02*
X25382500Y-112720000I-147500J0D01*
G01*
X25087500Y-112720000D01*
G75*
G02*
X24940000Y-112572500I0J147500D01*
G01*
X24940000Y-112227500D01*
G75*
G02*
X25087500Y-112080000I147500J0D01*
G01*
X25382500Y-112080000D01*
G75*
G02*
X25530000Y-112227500I0J-147500D01*
G01*
G37*
%TD*%
%TO.C,C14*%
G36*
G01*
X22560000Y-102177500D02*
X22560000Y-102522500D01*
G75*
G02*
X22412500Y-102670000I-147500J0D01*
G01*
X22117500Y-102670000D01*
G75*
G02*
X21970000Y-102522500I0J147500D01*
G01*
X21970000Y-102177500D01*
G75*
G02*
X22117500Y-102030000I147500J0D01*
G01*
X22412500Y-102030000D01*
G75*
G02*
X22560000Y-102177500I0J-147500D01*
G01*
G37*
G36*
G01*
X23530000Y-102177500D02*
X23530000Y-102522500D01*
G75*
G02*
X23382500Y-102670000I-147500J0D01*
G01*
X23087500Y-102670000D01*
G75*
G02*
X22940000Y-102522500I0J147500D01*
G01*
X22940000Y-102177500D01*
G75*
G02*
X23087500Y-102030000I147500J0D01*
G01*
X23382500Y-102030000D01*
G75*
G02*
X23530000Y-102177500I0J-147500D01*
G01*
G37*
%TD*%
%TO.C,C13*%
G36*
G01*
X24560000Y-102177500D02*
X24560000Y-102522500D01*
G75*
G02*
X24412500Y-102670000I-147500J0D01*
G01*
X24117500Y-102670000D01*
G75*
G02*
X23970000Y-102522500I0J147500D01*
G01*
X23970000Y-102177500D01*
G75*
G02*
X24117500Y-102030000I147500J0D01*
G01*
X24412500Y-102030000D01*
G75*
G02*
X24560000Y-102177500I0J-147500D01*
G01*
G37*
G36*
G01*
X25530000Y-102177500D02*
X25530000Y-102522500D01*
G75*
G02*
X25382500Y-102670000I-147500J0D01*
G01*
X25087500Y-102670000D01*
G75*
G02*
X24940000Y-102522500I0J147500D01*
G01*
X24940000Y-102177500D01*
G75*
G02*
X25087500Y-102030000I147500J0D01*
G01*
X25382500Y-102030000D01*
G75*
G02*
X25530000Y-102177500I0J-147500D01*
G01*
G37*
%TD*%
%TO.C,C12*%
G36*
G01*
X22560000Y-109727500D02*
X22560000Y-110072500D01*
G75*
G02*
X22412500Y-110220000I-147500J0D01*
G01*
X22117500Y-110220000D01*
G75*
G02*
X21970000Y-110072500I0J147500D01*
G01*
X21970000Y-109727500D01*
G75*
G02*
X22117500Y-109580000I147500J0D01*
G01*
X22412500Y-109580000D01*
G75*
G02*
X22560000Y-109727500I0J-147500D01*
G01*
G37*
G36*
G01*
X23530000Y-109727500D02*
X23530000Y-110072500D01*
G75*
G02*
X23382500Y-110220000I-147500J0D01*
G01*
X23087500Y-110220000D01*
G75*
G02*
X22940000Y-110072500I0J147500D01*
G01*
X22940000Y-109727500D01*
G75*
G02*
X23087500Y-109580000I147500J0D01*
G01*
X23382500Y-109580000D01*
G75*
G02*
X23530000Y-109727500I0J-147500D01*
G01*
G37*
%TD*%
%TO.C,C11*%
G36*
G01*
X24560000Y-109727500D02*
X24560000Y-110072500D01*
G75*
G02*
X24412500Y-110220000I-147500J0D01*
G01*
X24117500Y-110220000D01*
G75*
G02*
X23970000Y-110072500I0J147500D01*
G01*
X23970000Y-109727500D01*
G75*
G02*
X24117500Y-109580000I147500J0D01*
G01*
X24412500Y-109580000D01*
G75*
G02*
X24560000Y-109727500I0J-147500D01*
G01*
G37*
G36*
G01*
X25530000Y-109727500D02*
X25530000Y-110072500D01*
G75*
G02*
X25382500Y-110220000I-147500J0D01*
G01*
X25087500Y-110220000D01*
G75*
G02*
X24940000Y-110072500I0J147500D01*
G01*
X24940000Y-109727500D01*
G75*
G02*
X25087500Y-109580000I147500J0D01*
G01*
X25382500Y-109580000D01*
G75*
G02*
X25530000Y-109727500I0J-147500D01*
G01*
G37*
%TD*%
%TO.C,C10*%
G36*
G01*
X22560000Y-99677500D02*
X22560000Y-100022500D01*
G75*
G02*
X22412500Y-100170000I-147500J0D01*
G01*
X22117500Y-100170000D01*
G75*
G02*
X21970000Y-100022500I0J147500D01*
G01*
X21970000Y-99677500D01*
G75*
G02*
X22117500Y-99530000I147500J0D01*
G01*
X22412500Y-99530000D01*
G75*
G02*
X22560000Y-99677500I0J-147500D01*
G01*
G37*
G36*
G01*
X23530000Y-99677500D02*
X23530000Y-100022500D01*
G75*
G02*
X23382500Y-100170000I-147500J0D01*
G01*
X23087500Y-100170000D01*
G75*
G02*
X22940000Y-100022500I0J147500D01*
G01*
X22940000Y-99677500D01*
G75*
G02*
X23087500Y-99530000I147500J0D01*
G01*
X23382500Y-99530000D01*
G75*
G02*
X23530000Y-99677500I0J-147500D01*
G01*
G37*
%TD*%
%TO.C,C9*%
G36*
G01*
X24560000Y-99677500D02*
X24560000Y-100022500D01*
G75*
G02*
X24412500Y-100170000I-147500J0D01*
G01*
X24117500Y-100170000D01*
G75*
G02*
X23970000Y-100022500I0J147500D01*
G01*
X23970000Y-99677500D01*
G75*
G02*
X24117500Y-99530000I147500J0D01*
G01*
X24412500Y-99530000D01*
G75*
G02*
X24560000Y-99677500I0J-147500D01*
G01*
G37*
G36*
G01*
X25530000Y-99677500D02*
X25530000Y-100022500D01*
G75*
G02*
X25382500Y-100170000I-147500J0D01*
G01*
X25087500Y-100170000D01*
G75*
G02*
X24940000Y-100022500I0J147500D01*
G01*
X24940000Y-99677500D01*
G75*
G02*
X25087500Y-99530000I147500J0D01*
G01*
X25382500Y-99530000D01*
G75*
G02*
X25530000Y-99677500I0J-147500D01*
G01*
G37*
%TD*%
%TO.C,C8*%
G36*
G01*
X22560000Y-107227500D02*
X22560000Y-107572500D01*
G75*
G02*
X22412500Y-107720000I-147500J0D01*
G01*
X22117500Y-107720000D01*
G75*
G02*
X21970000Y-107572500I0J147500D01*
G01*
X21970000Y-107227500D01*
G75*
G02*
X22117500Y-107080000I147500J0D01*
G01*
X22412500Y-107080000D01*
G75*
G02*
X22560000Y-107227500I0J-147500D01*
G01*
G37*
G36*
G01*
X23530000Y-107227500D02*
X23530000Y-107572500D01*
G75*
G02*
X23382500Y-107720000I-147500J0D01*
G01*
X23087500Y-107720000D01*
G75*
G02*
X22940000Y-107572500I0J147500D01*
G01*
X22940000Y-107227500D01*
G75*
G02*
X23087500Y-107080000I147500J0D01*
G01*
X23382500Y-107080000D01*
G75*
G02*
X23530000Y-107227500I0J-147500D01*
G01*
G37*
%TD*%
%TO.C,C7*%
G36*
G01*
X24560000Y-107227500D02*
X24560000Y-107572500D01*
G75*
G02*
X24412500Y-107720000I-147500J0D01*
G01*
X24117500Y-107720000D01*
G75*
G02*
X23970000Y-107572500I0J147500D01*
G01*
X23970000Y-107227500D01*
G75*
G02*
X24117500Y-107080000I147500J0D01*
G01*
X24412500Y-107080000D01*
G75*
G02*
X24560000Y-107227500I0J-147500D01*
G01*
G37*
G36*
G01*
X25530000Y-107227500D02*
X25530000Y-107572500D01*
G75*
G02*
X25382500Y-107720000I-147500J0D01*
G01*
X25087500Y-107720000D01*
G75*
G02*
X24940000Y-107572500I0J147500D01*
G01*
X24940000Y-107227500D01*
G75*
G02*
X25087500Y-107080000I147500J0D01*
G01*
X25382500Y-107080000D01*
G75*
G02*
X25530000Y-107227500I0J-147500D01*
G01*
G37*
%TD*%
%TO.C,C6*%
G36*
G01*
X22560000Y-97177500D02*
X22560000Y-97522500D01*
G75*
G02*
X22412500Y-97670000I-147500J0D01*
G01*
X22117500Y-97670000D01*
G75*
G02*
X21970000Y-97522500I0J147500D01*
G01*
X21970000Y-97177500D01*
G75*
G02*
X22117500Y-97030000I147500J0D01*
G01*
X22412500Y-97030000D01*
G75*
G02*
X22560000Y-97177500I0J-147500D01*
G01*
G37*
G36*
G01*
X23530000Y-97177500D02*
X23530000Y-97522500D01*
G75*
G02*
X23382500Y-97670000I-147500J0D01*
G01*
X23087500Y-97670000D01*
G75*
G02*
X22940000Y-97522500I0J147500D01*
G01*
X22940000Y-97177500D01*
G75*
G02*
X23087500Y-97030000I147500J0D01*
G01*
X23382500Y-97030000D01*
G75*
G02*
X23530000Y-97177500I0J-147500D01*
G01*
G37*
%TD*%
%TO.C,C5*%
G36*
G01*
X24560000Y-97177500D02*
X24560000Y-97522500D01*
G75*
G02*
X24412500Y-97670000I-147500J0D01*
G01*
X24117500Y-97670000D01*
G75*
G02*
X23970000Y-97522500I0J147500D01*
G01*
X23970000Y-97177500D01*
G75*
G02*
X24117500Y-97030000I147500J0D01*
G01*
X24412500Y-97030000D01*
G75*
G02*
X24560000Y-97177500I0J-147500D01*
G01*
G37*
G36*
G01*
X25530000Y-97177500D02*
X25530000Y-97522500D01*
G75*
G02*
X25382500Y-97670000I-147500J0D01*
G01*
X25087500Y-97670000D01*
G75*
G02*
X24940000Y-97522500I0J147500D01*
G01*
X24940000Y-97177500D01*
G75*
G02*
X25087500Y-97030000I147500J0D01*
G01*
X25382500Y-97030000D01*
G75*
G02*
X25530000Y-97177500I0J-147500D01*
G01*
G37*
%TD*%
%TO.C,C4*%
G36*
G01*
X22560000Y-104727500D02*
X22560000Y-105072500D01*
G75*
G02*
X22412500Y-105220000I-147500J0D01*
G01*
X22117500Y-105220000D01*
G75*
G02*
X21970000Y-105072500I0J147500D01*
G01*
X21970000Y-104727500D01*
G75*
G02*
X22117500Y-104580000I147500J0D01*
G01*
X22412500Y-104580000D01*
G75*
G02*
X22560000Y-104727500I0J-147500D01*
G01*
G37*
G36*
G01*
X23530000Y-104727500D02*
X23530000Y-105072500D01*
G75*
G02*
X23382500Y-105220000I-147500J0D01*
G01*
X23087500Y-105220000D01*
G75*
G02*
X22940000Y-105072500I0J147500D01*
G01*
X22940000Y-104727500D01*
G75*
G02*
X23087500Y-104580000I147500J0D01*
G01*
X23382500Y-104580000D01*
G75*
G02*
X23530000Y-104727500I0J-147500D01*
G01*
G37*
%TD*%
%TO.C,C3*%
G36*
G01*
X24560000Y-104727500D02*
X24560000Y-105072500D01*
G75*
G02*
X24412500Y-105220000I-147500J0D01*
G01*
X24117500Y-105220000D01*
G75*
G02*
X23970000Y-105072500I0J147500D01*
G01*
X23970000Y-104727500D01*
G75*
G02*
X24117500Y-104580000I147500J0D01*
G01*
X24412500Y-104580000D01*
G75*
G02*
X24560000Y-104727500I0J-147500D01*
G01*
G37*
G36*
G01*
X25530000Y-104727500D02*
X25530000Y-105072500D01*
G75*
G02*
X25382500Y-105220000I-147500J0D01*
G01*
X25087500Y-105220000D01*
G75*
G02*
X24940000Y-105072500I0J147500D01*
G01*
X24940000Y-104727500D01*
G75*
G02*
X25087500Y-104580000I147500J0D01*
G01*
X25382500Y-104580000D01*
G75*
G02*
X25530000Y-104727500I0J-147500D01*
G01*
G37*
%TD*%
%TO.C,C2*%
G36*
G01*
X22560000Y-94677500D02*
X22560000Y-95022500D01*
G75*
G02*
X22412500Y-95170000I-147500J0D01*
G01*
X22117500Y-95170000D01*
G75*
G02*
X21970000Y-95022500I0J147500D01*
G01*
X21970000Y-94677500D01*
G75*
G02*
X22117500Y-94530000I147500J0D01*
G01*
X22412500Y-94530000D01*
G75*
G02*
X22560000Y-94677500I0J-147500D01*
G01*
G37*
G36*
G01*
X23530000Y-94677500D02*
X23530000Y-95022500D01*
G75*
G02*
X23382500Y-95170000I-147500J0D01*
G01*
X23087500Y-95170000D01*
G75*
G02*
X22940000Y-95022500I0J147500D01*
G01*
X22940000Y-94677500D01*
G75*
G02*
X23087500Y-94530000I147500J0D01*
G01*
X23382500Y-94530000D01*
G75*
G02*
X23530000Y-94677500I0J-147500D01*
G01*
G37*
%TD*%
%TO.C,C1*%
G36*
G01*
X24560000Y-94677500D02*
X24560000Y-95022500D01*
G75*
G02*
X24412500Y-95170000I-147500J0D01*
G01*
X24117500Y-95170000D01*
G75*
G02*
X23970000Y-95022500I0J147500D01*
G01*
X23970000Y-94677500D01*
G75*
G02*
X24117500Y-94530000I147500J0D01*
G01*
X24412500Y-94530000D01*
G75*
G02*
X24560000Y-94677500I0J-147500D01*
G01*
G37*
G36*
G01*
X25530000Y-94677500D02*
X25530000Y-95022500D01*
G75*
G02*
X25382500Y-95170000I-147500J0D01*
G01*
X25087500Y-95170000D01*
G75*
G02*
X24940000Y-95022500I0J147500D01*
G01*
X24940000Y-94677500D01*
G75*
G02*
X25087500Y-94530000I147500J0D01*
G01*
X25382500Y-94530000D01*
G75*
G02*
X25530000Y-94677500I0J-147500D01*
G01*
G37*
%TD*%
M02*
