%TF.GenerationSoftware,KiCad,Pcbnew,5.1.6-c6e7f7d~87~ubuntu18.04.1*%
%TF.CreationDate,2020-10-17T23:49:05-07:00*%
%TF.ProjectId,LA_Adapter,4c415f41-6461-4707-9465-722e6b696361,rev?*%
%TF.SameCoordinates,Original*%
%TF.FileFunction,Soldermask,Bot*%
%TF.FilePolarity,Negative*%
%FSLAX46Y46*%
G04 Gerber Fmt 4.6, Leading zero omitted, Abs format (unit mm)*
G04 Created by KiCad (PCBNEW 5.1.6-c6e7f7d~87~ubuntu18.04.1) date 2020-10-17 23:49:05*
%MOMM*%
%LPD*%
G01*
G04 APERTURE LIST*
%ADD10C,1.200000*%
%ADD11R,5.100000X2.100000*%
G04 APERTURE END LIST*
%TO.C,R24*%
G36*
G01*
X26890000Y-112597500D02*
X26890000Y-112202500D01*
G75*
G02*
X27062500Y-112030000I172500J0D01*
G01*
X27407500Y-112030000D01*
G75*
G02*
X27580000Y-112202500I0J-172500D01*
G01*
X27580000Y-112597500D01*
G75*
G02*
X27407500Y-112770000I-172500J0D01*
G01*
X27062500Y-112770000D01*
G75*
G02*
X26890000Y-112597500I0J172500D01*
G01*
G37*
G36*
G01*
X25920000Y-112597500D02*
X25920000Y-112202500D01*
G75*
G02*
X26092500Y-112030000I172500J0D01*
G01*
X26437500Y-112030000D01*
G75*
G02*
X26610000Y-112202500I0J-172500D01*
G01*
X26610000Y-112597500D01*
G75*
G02*
X26437500Y-112770000I-172500J0D01*
G01*
X26092500Y-112770000D01*
G75*
G02*
X25920000Y-112597500I0J172500D01*
G01*
G37*
%TD*%
%TO.C,R23*%
G36*
G01*
X26890000Y-103797500D02*
X26890000Y-103402500D01*
G75*
G02*
X27062500Y-103230000I172500J0D01*
G01*
X27407500Y-103230000D01*
G75*
G02*
X27580000Y-103402500I0J-172500D01*
G01*
X27580000Y-103797500D01*
G75*
G02*
X27407500Y-103970000I-172500J0D01*
G01*
X27062500Y-103970000D01*
G75*
G02*
X26890000Y-103797500I0J172500D01*
G01*
G37*
G36*
G01*
X25920000Y-103797500D02*
X25920000Y-103402500D01*
G75*
G02*
X26092500Y-103230000I172500J0D01*
G01*
X26437500Y-103230000D01*
G75*
G02*
X26610000Y-103402500I0J-172500D01*
G01*
X26610000Y-103797500D01*
G75*
G02*
X26437500Y-103970000I-172500J0D01*
G01*
X26092500Y-103970000D01*
G75*
G02*
X25920000Y-103797500I0J172500D01*
G01*
G37*
%TD*%
%TO.C,R22*%
G36*
G01*
X26890000Y-110097500D02*
X26890000Y-109702500D01*
G75*
G02*
X27062500Y-109530000I172500J0D01*
G01*
X27407500Y-109530000D01*
G75*
G02*
X27580000Y-109702500I0J-172500D01*
G01*
X27580000Y-110097500D01*
G75*
G02*
X27407500Y-110270000I-172500J0D01*
G01*
X27062500Y-110270000D01*
G75*
G02*
X26890000Y-110097500I0J172500D01*
G01*
G37*
G36*
G01*
X25920000Y-110097500D02*
X25920000Y-109702500D01*
G75*
G02*
X26092500Y-109530000I172500J0D01*
G01*
X26437500Y-109530000D01*
G75*
G02*
X26610000Y-109702500I0J-172500D01*
G01*
X26610000Y-110097500D01*
G75*
G02*
X26437500Y-110270000I-172500J0D01*
G01*
X26092500Y-110270000D01*
G75*
G02*
X25920000Y-110097500I0J172500D01*
G01*
G37*
%TD*%
%TO.C,R21*%
G36*
G01*
X26890000Y-101297500D02*
X26890000Y-100902500D01*
G75*
G02*
X27062500Y-100730000I172500J0D01*
G01*
X27407500Y-100730000D01*
G75*
G02*
X27580000Y-100902500I0J-172500D01*
G01*
X27580000Y-101297500D01*
G75*
G02*
X27407500Y-101470000I-172500J0D01*
G01*
X27062500Y-101470000D01*
G75*
G02*
X26890000Y-101297500I0J172500D01*
G01*
G37*
G36*
G01*
X25920000Y-101297500D02*
X25920000Y-100902500D01*
G75*
G02*
X26092500Y-100730000I172500J0D01*
G01*
X26437500Y-100730000D01*
G75*
G02*
X26610000Y-100902500I0J-172500D01*
G01*
X26610000Y-101297500D01*
G75*
G02*
X26437500Y-101470000I-172500J0D01*
G01*
X26092500Y-101470000D01*
G75*
G02*
X25920000Y-101297500I0J172500D01*
G01*
G37*
%TD*%
%TO.C,R20*%
G36*
G01*
X26890000Y-107597500D02*
X26890000Y-107202500D01*
G75*
G02*
X27062500Y-107030000I172500J0D01*
G01*
X27407500Y-107030000D01*
G75*
G02*
X27580000Y-107202500I0J-172500D01*
G01*
X27580000Y-107597500D01*
G75*
G02*
X27407500Y-107770000I-172500J0D01*
G01*
X27062500Y-107770000D01*
G75*
G02*
X26890000Y-107597500I0J172500D01*
G01*
G37*
G36*
G01*
X25920000Y-107597500D02*
X25920000Y-107202500D01*
G75*
G02*
X26092500Y-107030000I172500J0D01*
G01*
X26437500Y-107030000D01*
G75*
G02*
X26610000Y-107202500I0J-172500D01*
G01*
X26610000Y-107597500D01*
G75*
G02*
X26437500Y-107770000I-172500J0D01*
G01*
X26092500Y-107770000D01*
G75*
G02*
X25920000Y-107597500I0J172500D01*
G01*
G37*
%TD*%
%TO.C,R19*%
G36*
G01*
X26890000Y-98797500D02*
X26890000Y-98402500D01*
G75*
G02*
X27062500Y-98230000I172500J0D01*
G01*
X27407500Y-98230000D01*
G75*
G02*
X27580000Y-98402500I0J-172500D01*
G01*
X27580000Y-98797500D01*
G75*
G02*
X27407500Y-98970000I-172500J0D01*
G01*
X27062500Y-98970000D01*
G75*
G02*
X26890000Y-98797500I0J172500D01*
G01*
G37*
G36*
G01*
X25920000Y-98797500D02*
X25920000Y-98402500D01*
G75*
G02*
X26092500Y-98230000I172500J0D01*
G01*
X26437500Y-98230000D01*
G75*
G02*
X26610000Y-98402500I0J-172500D01*
G01*
X26610000Y-98797500D01*
G75*
G02*
X26437500Y-98970000I-172500J0D01*
G01*
X26092500Y-98970000D01*
G75*
G02*
X25920000Y-98797500I0J172500D01*
G01*
G37*
%TD*%
%TO.C,R18*%
G36*
G01*
X26890000Y-105097500D02*
X26890000Y-104702500D01*
G75*
G02*
X27062500Y-104530000I172500J0D01*
G01*
X27407500Y-104530000D01*
G75*
G02*
X27580000Y-104702500I0J-172500D01*
G01*
X27580000Y-105097500D01*
G75*
G02*
X27407500Y-105270000I-172500J0D01*
G01*
X27062500Y-105270000D01*
G75*
G02*
X26890000Y-105097500I0J172500D01*
G01*
G37*
G36*
G01*
X25920000Y-105097500D02*
X25920000Y-104702500D01*
G75*
G02*
X26092500Y-104530000I172500J0D01*
G01*
X26437500Y-104530000D01*
G75*
G02*
X26610000Y-104702500I0J-172500D01*
G01*
X26610000Y-105097500D01*
G75*
G02*
X26437500Y-105270000I-172500J0D01*
G01*
X26092500Y-105270000D01*
G75*
G02*
X25920000Y-105097500I0J172500D01*
G01*
G37*
%TD*%
%TO.C,R17*%
G36*
G01*
X26890000Y-96297500D02*
X26890000Y-95902500D01*
G75*
G02*
X27062500Y-95730000I172500J0D01*
G01*
X27407500Y-95730000D01*
G75*
G02*
X27580000Y-95902500I0J-172500D01*
G01*
X27580000Y-96297500D01*
G75*
G02*
X27407500Y-96470000I-172500J0D01*
G01*
X27062500Y-96470000D01*
G75*
G02*
X26890000Y-96297500I0J172500D01*
G01*
G37*
G36*
G01*
X25920000Y-96297500D02*
X25920000Y-95902500D01*
G75*
G02*
X26092500Y-95730000I172500J0D01*
G01*
X26437500Y-95730000D01*
G75*
G02*
X26610000Y-95902500I0J-172500D01*
G01*
X26610000Y-96297500D01*
G75*
G02*
X26437500Y-96470000I-172500J0D01*
G01*
X26092500Y-96470000D01*
G75*
G02*
X25920000Y-96297500I0J172500D01*
G01*
G37*
%TD*%
D10*
%TO.C,J2*%
X30865000Y-99805000D03*
X32135000Y-99805000D03*
X30865000Y-101075000D03*
X32135000Y-101075000D03*
X30865000Y-102345000D03*
X32135000Y-102345000D03*
X30865000Y-103615000D03*
X32135000Y-103615000D03*
X30865000Y-104885000D03*
X32135000Y-104885000D03*
X30865000Y-106155000D03*
X32135000Y-106155000D03*
X30865000Y-107425000D03*
X32135000Y-107425000D03*
X30865000Y-108695000D03*
X32135000Y-108695000D03*
%TD*%
D11*
%TO.C,J1*%
X17250000Y-113140000D03*
X17250000Y-110600000D03*
X17250000Y-108060000D03*
X17250000Y-105520000D03*
X17250000Y-102980000D03*
X17250000Y-100440000D03*
X17250000Y-97900000D03*
X17250000Y-95360000D03*
%TD*%
%TO.C,R16*%
G36*
G01*
X22610000Y-113452500D02*
X22610000Y-113847500D01*
G75*
G02*
X22437500Y-114020000I-172500J0D01*
G01*
X22092500Y-114020000D01*
G75*
G02*
X21920000Y-113847500I0J172500D01*
G01*
X21920000Y-113452500D01*
G75*
G02*
X22092500Y-113280000I172500J0D01*
G01*
X22437500Y-113280000D01*
G75*
G02*
X22610000Y-113452500I0J-172500D01*
G01*
G37*
G36*
G01*
X23580000Y-113452500D02*
X23580000Y-113847500D01*
G75*
G02*
X23407500Y-114020000I-172500J0D01*
G01*
X23062500Y-114020000D01*
G75*
G02*
X22890000Y-113847500I0J172500D01*
G01*
X22890000Y-113452500D01*
G75*
G02*
X23062500Y-113280000I172500J0D01*
G01*
X23407500Y-113280000D01*
G75*
G02*
X23580000Y-113452500I0J-172500D01*
G01*
G37*
%TD*%
%TO.C,R15*%
G36*
G01*
X24610000Y-113452500D02*
X24610000Y-113847500D01*
G75*
G02*
X24437500Y-114020000I-172500J0D01*
G01*
X24092500Y-114020000D01*
G75*
G02*
X23920000Y-113847500I0J172500D01*
G01*
X23920000Y-113452500D01*
G75*
G02*
X24092500Y-113280000I172500J0D01*
G01*
X24437500Y-113280000D01*
G75*
G02*
X24610000Y-113452500I0J-172500D01*
G01*
G37*
G36*
G01*
X25580000Y-113452500D02*
X25580000Y-113847500D01*
G75*
G02*
X25407500Y-114020000I-172500J0D01*
G01*
X25062500Y-114020000D01*
G75*
G02*
X24890000Y-113847500I0J172500D01*
G01*
X24890000Y-113452500D01*
G75*
G02*
X25062500Y-113280000I172500J0D01*
G01*
X25407500Y-113280000D01*
G75*
G02*
X25580000Y-113452500I0J-172500D01*
G01*
G37*
%TD*%
%TO.C,R14*%
G36*
G01*
X22610000Y-103402500D02*
X22610000Y-103797500D01*
G75*
G02*
X22437500Y-103970000I-172500J0D01*
G01*
X22092500Y-103970000D01*
G75*
G02*
X21920000Y-103797500I0J172500D01*
G01*
X21920000Y-103402500D01*
G75*
G02*
X22092500Y-103230000I172500J0D01*
G01*
X22437500Y-103230000D01*
G75*
G02*
X22610000Y-103402500I0J-172500D01*
G01*
G37*
G36*
G01*
X23580000Y-103402500D02*
X23580000Y-103797500D01*
G75*
G02*
X23407500Y-103970000I-172500J0D01*
G01*
X23062500Y-103970000D01*
G75*
G02*
X22890000Y-103797500I0J172500D01*
G01*
X22890000Y-103402500D01*
G75*
G02*
X23062500Y-103230000I172500J0D01*
G01*
X23407500Y-103230000D01*
G75*
G02*
X23580000Y-103402500I0J-172500D01*
G01*
G37*
%TD*%
%TO.C,R13*%
G36*
G01*
X24610000Y-103402500D02*
X24610000Y-103797500D01*
G75*
G02*
X24437500Y-103970000I-172500J0D01*
G01*
X24092500Y-103970000D01*
G75*
G02*
X23920000Y-103797500I0J172500D01*
G01*
X23920000Y-103402500D01*
G75*
G02*
X24092500Y-103230000I172500J0D01*
G01*
X24437500Y-103230000D01*
G75*
G02*
X24610000Y-103402500I0J-172500D01*
G01*
G37*
G36*
G01*
X25580000Y-103402500D02*
X25580000Y-103797500D01*
G75*
G02*
X25407500Y-103970000I-172500J0D01*
G01*
X25062500Y-103970000D01*
G75*
G02*
X24890000Y-103797500I0J172500D01*
G01*
X24890000Y-103402500D01*
G75*
G02*
X25062500Y-103230000I172500J0D01*
G01*
X25407500Y-103230000D01*
G75*
G02*
X25580000Y-103402500I0J-172500D01*
G01*
G37*
%TD*%
%TO.C,R12*%
G36*
G01*
X22610000Y-110952500D02*
X22610000Y-111347500D01*
G75*
G02*
X22437500Y-111520000I-172500J0D01*
G01*
X22092500Y-111520000D01*
G75*
G02*
X21920000Y-111347500I0J172500D01*
G01*
X21920000Y-110952500D01*
G75*
G02*
X22092500Y-110780000I172500J0D01*
G01*
X22437500Y-110780000D01*
G75*
G02*
X22610000Y-110952500I0J-172500D01*
G01*
G37*
G36*
G01*
X23580000Y-110952500D02*
X23580000Y-111347500D01*
G75*
G02*
X23407500Y-111520000I-172500J0D01*
G01*
X23062500Y-111520000D01*
G75*
G02*
X22890000Y-111347500I0J172500D01*
G01*
X22890000Y-110952500D01*
G75*
G02*
X23062500Y-110780000I172500J0D01*
G01*
X23407500Y-110780000D01*
G75*
G02*
X23580000Y-110952500I0J-172500D01*
G01*
G37*
%TD*%
%TO.C,R11*%
G36*
G01*
X24610000Y-110952500D02*
X24610000Y-111347500D01*
G75*
G02*
X24437500Y-111520000I-172500J0D01*
G01*
X24092500Y-111520000D01*
G75*
G02*
X23920000Y-111347500I0J172500D01*
G01*
X23920000Y-110952500D01*
G75*
G02*
X24092500Y-110780000I172500J0D01*
G01*
X24437500Y-110780000D01*
G75*
G02*
X24610000Y-110952500I0J-172500D01*
G01*
G37*
G36*
G01*
X25580000Y-110952500D02*
X25580000Y-111347500D01*
G75*
G02*
X25407500Y-111520000I-172500J0D01*
G01*
X25062500Y-111520000D01*
G75*
G02*
X24890000Y-111347500I0J172500D01*
G01*
X24890000Y-110952500D01*
G75*
G02*
X25062500Y-110780000I172500J0D01*
G01*
X25407500Y-110780000D01*
G75*
G02*
X25580000Y-110952500I0J-172500D01*
G01*
G37*
%TD*%
%TO.C,R10*%
G36*
G01*
X22610000Y-100902500D02*
X22610000Y-101297500D01*
G75*
G02*
X22437500Y-101470000I-172500J0D01*
G01*
X22092500Y-101470000D01*
G75*
G02*
X21920000Y-101297500I0J172500D01*
G01*
X21920000Y-100902500D01*
G75*
G02*
X22092500Y-100730000I172500J0D01*
G01*
X22437500Y-100730000D01*
G75*
G02*
X22610000Y-100902500I0J-172500D01*
G01*
G37*
G36*
G01*
X23580000Y-100902500D02*
X23580000Y-101297500D01*
G75*
G02*
X23407500Y-101470000I-172500J0D01*
G01*
X23062500Y-101470000D01*
G75*
G02*
X22890000Y-101297500I0J172500D01*
G01*
X22890000Y-100902500D01*
G75*
G02*
X23062500Y-100730000I172500J0D01*
G01*
X23407500Y-100730000D01*
G75*
G02*
X23580000Y-100902500I0J-172500D01*
G01*
G37*
%TD*%
%TO.C,R9*%
G36*
G01*
X24610000Y-100902500D02*
X24610000Y-101297500D01*
G75*
G02*
X24437500Y-101470000I-172500J0D01*
G01*
X24092500Y-101470000D01*
G75*
G02*
X23920000Y-101297500I0J172500D01*
G01*
X23920000Y-100902500D01*
G75*
G02*
X24092500Y-100730000I172500J0D01*
G01*
X24437500Y-100730000D01*
G75*
G02*
X24610000Y-100902500I0J-172500D01*
G01*
G37*
G36*
G01*
X25580000Y-100902500D02*
X25580000Y-101297500D01*
G75*
G02*
X25407500Y-101470000I-172500J0D01*
G01*
X25062500Y-101470000D01*
G75*
G02*
X24890000Y-101297500I0J172500D01*
G01*
X24890000Y-100902500D01*
G75*
G02*
X25062500Y-100730000I172500J0D01*
G01*
X25407500Y-100730000D01*
G75*
G02*
X25580000Y-100902500I0J-172500D01*
G01*
G37*
%TD*%
%TO.C,R8*%
G36*
G01*
X22610000Y-108452500D02*
X22610000Y-108847500D01*
G75*
G02*
X22437500Y-109020000I-172500J0D01*
G01*
X22092500Y-109020000D01*
G75*
G02*
X21920000Y-108847500I0J172500D01*
G01*
X21920000Y-108452500D01*
G75*
G02*
X22092500Y-108280000I172500J0D01*
G01*
X22437500Y-108280000D01*
G75*
G02*
X22610000Y-108452500I0J-172500D01*
G01*
G37*
G36*
G01*
X23580000Y-108452500D02*
X23580000Y-108847500D01*
G75*
G02*
X23407500Y-109020000I-172500J0D01*
G01*
X23062500Y-109020000D01*
G75*
G02*
X22890000Y-108847500I0J172500D01*
G01*
X22890000Y-108452500D01*
G75*
G02*
X23062500Y-108280000I172500J0D01*
G01*
X23407500Y-108280000D01*
G75*
G02*
X23580000Y-108452500I0J-172500D01*
G01*
G37*
%TD*%
%TO.C,R7*%
G36*
G01*
X24610000Y-108452500D02*
X24610000Y-108847500D01*
G75*
G02*
X24437500Y-109020000I-172500J0D01*
G01*
X24092500Y-109020000D01*
G75*
G02*
X23920000Y-108847500I0J172500D01*
G01*
X23920000Y-108452500D01*
G75*
G02*
X24092500Y-108280000I172500J0D01*
G01*
X24437500Y-108280000D01*
G75*
G02*
X24610000Y-108452500I0J-172500D01*
G01*
G37*
G36*
G01*
X25580000Y-108452500D02*
X25580000Y-108847500D01*
G75*
G02*
X25407500Y-109020000I-172500J0D01*
G01*
X25062500Y-109020000D01*
G75*
G02*
X24890000Y-108847500I0J172500D01*
G01*
X24890000Y-108452500D01*
G75*
G02*
X25062500Y-108280000I172500J0D01*
G01*
X25407500Y-108280000D01*
G75*
G02*
X25580000Y-108452500I0J-172500D01*
G01*
G37*
%TD*%
%TO.C,R6*%
G36*
G01*
X22610000Y-98402500D02*
X22610000Y-98797500D01*
G75*
G02*
X22437500Y-98970000I-172500J0D01*
G01*
X22092500Y-98970000D01*
G75*
G02*
X21920000Y-98797500I0J172500D01*
G01*
X21920000Y-98402500D01*
G75*
G02*
X22092500Y-98230000I172500J0D01*
G01*
X22437500Y-98230000D01*
G75*
G02*
X22610000Y-98402500I0J-172500D01*
G01*
G37*
G36*
G01*
X23580000Y-98402500D02*
X23580000Y-98797500D01*
G75*
G02*
X23407500Y-98970000I-172500J0D01*
G01*
X23062500Y-98970000D01*
G75*
G02*
X22890000Y-98797500I0J172500D01*
G01*
X22890000Y-98402500D01*
G75*
G02*
X23062500Y-98230000I172500J0D01*
G01*
X23407500Y-98230000D01*
G75*
G02*
X23580000Y-98402500I0J-172500D01*
G01*
G37*
%TD*%
%TO.C,R5*%
G36*
G01*
X24610000Y-98402500D02*
X24610000Y-98797500D01*
G75*
G02*
X24437500Y-98970000I-172500J0D01*
G01*
X24092500Y-98970000D01*
G75*
G02*
X23920000Y-98797500I0J172500D01*
G01*
X23920000Y-98402500D01*
G75*
G02*
X24092500Y-98230000I172500J0D01*
G01*
X24437500Y-98230000D01*
G75*
G02*
X24610000Y-98402500I0J-172500D01*
G01*
G37*
G36*
G01*
X25580000Y-98402500D02*
X25580000Y-98797500D01*
G75*
G02*
X25407500Y-98970000I-172500J0D01*
G01*
X25062500Y-98970000D01*
G75*
G02*
X24890000Y-98797500I0J172500D01*
G01*
X24890000Y-98402500D01*
G75*
G02*
X25062500Y-98230000I172500J0D01*
G01*
X25407500Y-98230000D01*
G75*
G02*
X25580000Y-98402500I0J-172500D01*
G01*
G37*
%TD*%
%TO.C,R4*%
G36*
G01*
X22610000Y-105952500D02*
X22610000Y-106347500D01*
G75*
G02*
X22437500Y-106520000I-172500J0D01*
G01*
X22092500Y-106520000D01*
G75*
G02*
X21920000Y-106347500I0J172500D01*
G01*
X21920000Y-105952500D01*
G75*
G02*
X22092500Y-105780000I172500J0D01*
G01*
X22437500Y-105780000D01*
G75*
G02*
X22610000Y-105952500I0J-172500D01*
G01*
G37*
G36*
G01*
X23580000Y-105952500D02*
X23580000Y-106347500D01*
G75*
G02*
X23407500Y-106520000I-172500J0D01*
G01*
X23062500Y-106520000D01*
G75*
G02*
X22890000Y-106347500I0J172500D01*
G01*
X22890000Y-105952500D01*
G75*
G02*
X23062500Y-105780000I172500J0D01*
G01*
X23407500Y-105780000D01*
G75*
G02*
X23580000Y-105952500I0J-172500D01*
G01*
G37*
%TD*%
%TO.C,R3*%
G36*
G01*
X24610000Y-105952500D02*
X24610000Y-106347500D01*
G75*
G02*
X24437500Y-106520000I-172500J0D01*
G01*
X24092500Y-106520000D01*
G75*
G02*
X23920000Y-106347500I0J172500D01*
G01*
X23920000Y-105952500D01*
G75*
G02*
X24092500Y-105780000I172500J0D01*
G01*
X24437500Y-105780000D01*
G75*
G02*
X24610000Y-105952500I0J-172500D01*
G01*
G37*
G36*
G01*
X25580000Y-105952500D02*
X25580000Y-106347500D01*
G75*
G02*
X25407500Y-106520000I-172500J0D01*
G01*
X25062500Y-106520000D01*
G75*
G02*
X24890000Y-106347500I0J172500D01*
G01*
X24890000Y-105952500D01*
G75*
G02*
X25062500Y-105780000I172500J0D01*
G01*
X25407500Y-105780000D01*
G75*
G02*
X25580000Y-105952500I0J-172500D01*
G01*
G37*
%TD*%
%TO.C,R2*%
G36*
G01*
X22610000Y-95902500D02*
X22610000Y-96297500D01*
G75*
G02*
X22437500Y-96470000I-172500J0D01*
G01*
X22092500Y-96470000D01*
G75*
G02*
X21920000Y-96297500I0J172500D01*
G01*
X21920000Y-95902500D01*
G75*
G02*
X22092500Y-95730000I172500J0D01*
G01*
X22437500Y-95730000D01*
G75*
G02*
X22610000Y-95902500I0J-172500D01*
G01*
G37*
G36*
G01*
X23580000Y-95902500D02*
X23580000Y-96297500D01*
G75*
G02*
X23407500Y-96470000I-172500J0D01*
G01*
X23062500Y-96470000D01*
G75*
G02*
X22890000Y-96297500I0J172500D01*
G01*
X22890000Y-95902500D01*
G75*
G02*
X23062500Y-95730000I172500J0D01*
G01*
X23407500Y-95730000D01*
G75*
G02*
X23580000Y-95902500I0J-172500D01*
G01*
G37*
%TD*%
%TO.C,R1*%
G36*
G01*
X24610000Y-95902500D02*
X24610000Y-96297500D01*
G75*
G02*
X24437500Y-96470000I-172500J0D01*
G01*
X24092500Y-96470000D01*
G75*
G02*
X23920000Y-96297500I0J172500D01*
G01*
X23920000Y-95902500D01*
G75*
G02*
X24092500Y-95730000I172500J0D01*
G01*
X24437500Y-95730000D01*
G75*
G02*
X24610000Y-95902500I0J-172500D01*
G01*
G37*
G36*
G01*
X25580000Y-95902500D02*
X25580000Y-96297500D01*
G75*
G02*
X25407500Y-96470000I-172500J0D01*
G01*
X25062500Y-96470000D01*
G75*
G02*
X24890000Y-96297500I0J172500D01*
G01*
X24890000Y-95902500D01*
G75*
G02*
X25062500Y-95730000I172500J0D01*
G01*
X25407500Y-95730000D01*
G75*
G02*
X25580000Y-95902500I0J-172500D01*
G01*
G37*
%TD*%
%TO.C,C16*%
G36*
G01*
X22610000Y-112202500D02*
X22610000Y-112597500D01*
G75*
G02*
X22437500Y-112770000I-172500J0D01*
G01*
X22092500Y-112770000D01*
G75*
G02*
X21920000Y-112597500I0J172500D01*
G01*
X21920000Y-112202500D01*
G75*
G02*
X22092500Y-112030000I172500J0D01*
G01*
X22437500Y-112030000D01*
G75*
G02*
X22610000Y-112202500I0J-172500D01*
G01*
G37*
G36*
G01*
X23580000Y-112202500D02*
X23580000Y-112597500D01*
G75*
G02*
X23407500Y-112770000I-172500J0D01*
G01*
X23062500Y-112770000D01*
G75*
G02*
X22890000Y-112597500I0J172500D01*
G01*
X22890000Y-112202500D01*
G75*
G02*
X23062500Y-112030000I172500J0D01*
G01*
X23407500Y-112030000D01*
G75*
G02*
X23580000Y-112202500I0J-172500D01*
G01*
G37*
%TD*%
%TO.C,C15*%
G36*
G01*
X24610000Y-112202500D02*
X24610000Y-112597500D01*
G75*
G02*
X24437500Y-112770000I-172500J0D01*
G01*
X24092500Y-112770000D01*
G75*
G02*
X23920000Y-112597500I0J172500D01*
G01*
X23920000Y-112202500D01*
G75*
G02*
X24092500Y-112030000I172500J0D01*
G01*
X24437500Y-112030000D01*
G75*
G02*
X24610000Y-112202500I0J-172500D01*
G01*
G37*
G36*
G01*
X25580000Y-112202500D02*
X25580000Y-112597500D01*
G75*
G02*
X25407500Y-112770000I-172500J0D01*
G01*
X25062500Y-112770000D01*
G75*
G02*
X24890000Y-112597500I0J172500D01*
G01*
X24890000Y-112202500D01*
G75*
G02*
X25062500Y-112030000I172500J0D01*
G01*
X25407500Y-112030000D01*
G75*
G02*
X25580000Y-112202500I0J-172500D01*
G01*
G37*
%TD*%
%TO.C,C14*%
G36*
G01*
X22610000Y-102152500D02*
X22610000Y-102547500D01*
G75*
G02*
X22437500Y-102720000I-172500J0D01*
G01*
X22092500Y-102720000D01*
G75*
G02*
X21920000Y-102547500I0J172500D01*
G01*
X21920000Y-102152500D01*
G75*
G02*
X22092500Y-101980000I172500J0D01*
G01*
X22437500Y-101980000D01*
G75*
G02*
X22610000Y-102152500I0J-172500D01*
G01*
G37*
G36*
G01*
X23580000Y-102152500D02*
X23580000Y-102547500D01*
G75*
G02*
X23407500Y-102720000I-172500J0D01*
G01*
X23062500Y-102720000D01*
G75*
G02*
X22890000Y-102547500I0J172500D01*
G01*
X22890000Y-102152500D01*
G75*
G02*
X23062500Y-101980000I172500J0D01*
G01*
X23407500Y-101980000D01*
G75*
G02*
X23580000Y-102152500I0J-172500D01*
G01*
G37*
%TD*%
%TO.C,C13*%
G36*
G01*
X24610000Y-102152500D02*
X24610000Y-102547500D01*
G75*
G02*
X24437500Y-102720000I-172500J0D01*
G01*
X24092500Y-102720000D01*
G75*
G02*
X23920000Y-102547500I0J172500D01*
G01*
X23920000Y-102152500D01*
G75*
G02*
X24092500Y-101980000I172500J0D01*
G01*
X24437500Y-101980000D01*
G75*
G02*
X24610000Y-102152500I0J-172500D01*
G01*
G37*
G36*
G01*
X25580000Y-102152500D02*
X25580000Y-102547500D01*
G75*
G02*
X25407500Y-102720000I-172500J0D01*
G01*
X25062500Y-102720000D01*
G75*
G02*
X24890000Y-102547500I0J172500D01*
G01*
X24890000Y-102152500D01*
G75*
G02*
X25062500Y-101980000I172500J0D01*
G01*
X25407500Y-101980000D01*
G75*
G02*
X25580000Y-102152500I0J-172500D01*
G01*
G37*
%TD*%
%TO.C,C12*%
G36*
G01*
X22610000Y-109702500D02*
X22610000Y-110097500D01*
G75*
G02*
X22437500Y-110270000I-172500J0D01*
G01*
X22092500Y-110270000D01*
G75*
G02*
X21920000Y-110097500I0J172500D01*
G01*
X21920000Y-109702500D01*
G75*
G02*
X22092500Y-109530000I172500J0D01*
G01*
X22437500Y-109530000D01*
G75*
G02*
X22610000Y-109702500I0J-172500D01*
G01*
G37*
G36*
G01*
X23580000Y-109702500D02*
X23580000Y-110097500D01*
G75*
G02*
X23407500Y-110270000I-172500J0D01*
G01*
X23062500Y-110270000D01*
G75*
G02*
X22890000Y-110097500I0J172500D01*
G01*
X22890000Y-109702500D01*
G75*
G02*
X23062500Y-109530000I172500J0D01*
G01*
X23407500Y-109530000D01*
G75*
G02*
X23580000Y-109702500I0J-172500D01*
G01*
G37*
%TD*%
%TO.C,C11*%
G36*
G01*
X24610000Y-109702500D02*
X24610000Y-110097500D01*
G75*
G02*
X24437500Y-110270000I-172500J0D01*
G01*
X24092500Y-110270000D01*
G75*
G02*
X23920000Y-110097500I0J172500D01*
G01*
X23920000Y-109702500D01*
G75*
G02*
X24092500Y-109530000I172500J0D01*
G01*
X24437500Y-109530000D01*
G75*
G02*
X24610000Y-109702500I0J-172500D01*
G01*
G37*
G36*
G01*
X25580000Y-109702500D02*
X25580000Y-110097500D01*
G75*
G02*
X25407500Y-110270000I-172500J0D01*
G01*
X25062500Y-110270000D01*
G75*
G02*
X24890000Y-110097500I0J172500D01*
G01*
X24890000Y-109702500D01*
G75*
G02*
X25062500Y-109530000I172500J0D01*
G01*
X25407500Y-109530000D01*
G75*
G02*
X25580000Y-109702500I0J-172500D01*
G01*
G37*
%TD*%
%TO.C,C10*%
G36*
G01*
X22610000Y-99652500D02*
X22610000Y-100047500D01*
G75*
G02*
X22437500Y-100220000I-172500J0D01*
G01*
X22092500Y-100220000D01*
G75*
G02*
X21920000Y-100047500I0J172500D01*
G01*
X21920000Y-99652500D01*
G75*
G02*
X22092500Y-99480000I172500J0D01*
G01*
X22437500Y-99480000D01*
G75*
G02*
X22610000Y-99652500I0J-172500D01*
G01*
G37*
G36*
G01*
X23580000Y-99652500D02*
X23580000Y-100047500D01*
G75*
G02*
X23407500Y-100220000I-172500J0D01*
G01*
X23062500Y-100220000D01*
G75*
G02*
X22890000Y-100047500I0J172500D01*
G01*
X22890000Y-99652500D01*
G75*
G02*
X23062500Y-99480000I172500J0D01*
G01*
X23407500Y-99480000D01*
G75*
G02*
X23580000Y-99652500I0J-172500D01*
G01*
G37*
%TD*%
%TO.C,C9*%
G36*
G01*
X24610000Y-99652500D02*
X24610000Y-100047500D01*
G75*
G02*
X24437500Y-100220000I-172500J0D01*
G01*
X24092500Y-100220000D01*
G75*
G02*
X23920000Y-100047500I0J172500D01*
G01*
X23920000Y-99652500D01*
G75*
G02*
X24092500Y-99480000I172500J0D01*
G01*
X24437500Y-99480000D01*
G75*
G02*
X24610000Y-99652500I0J-172500D01*
G01*
G37*
G36*
G01*
X25580000Y-99652500D02*
X25580000Y-100047500D01*
G75*
G02*
X25407500Y-100220000I-172500J0D01*
G01*
X25062500Y-100220000D01*
G75*
G02*
X24890000Y-100047500I0J172500D01*
G01*
X24890000Y-99652500D01*
G75*
G02*
X25062500Y-99480000I172500J0D01*
G01*
X25407500Y-99480000D01*
G75*
G02*
X25580000Y-99652500I0J-172500D01*
G01*
G37*
%TD*%
%TO.C,C8*%
G36*
G01*
X22610000Y-107202500D02*
X22610000Y-107597500D01*
G75*
G02*
X22437500Y-107770000I-172500J0D01*
G01*
X22092500Y-107770000D01*
G75*
G02*
X21920000Y-107597500I0J172500D01*
G01*
X21920000Y-107202500D01*
G75*
G02*
X22092500Y-107030000I172500J0D01*
G01*
X22437500Y-107030000D01*
G75*
G02*
X22610000Y-107202500I0J-172500D01*
G01*
G37*
G36*
G01*
X23580000Y-107202500D02*
X23580000Y-107597500D01*
G75*
G02*
X23407500Y-107770000I-172500J0D01*
G01*
X23062500Y-107770000D01*
G75*
G02*
X22890000Y-107597500I0J172500D01*
G01*
X22890000Y-107202500D01*
G75*
G02*
X23062500Y-107030000I172500J0D01*
G01*
X23407500Y-107030000D01*
G75*
G02*
X23580000Y-107202500I0J-172500D01*
G01*
G37*
%TD*%
%TO.C,C7*%
G36*
G01*
X24610000Y-107202500D02*
X24610000Y-107597500D01*
G75*
G02*
X24437500Y-107770000I-172500J0D01*
G01*
X24092500Y-107770000D01*
G75*
G02*
X23920000Y-107597500I0J172500D01*
G01*
X23920000Y-107202500D01*
G75*
G02*
X24092500Y-107030000I172500J0D01*
G01*
X24437500Y-107030000D01*
G75*
G02*
X24610000Y-107202500I0J-172500D01*
G01*
G37*
G36*
G01*
X25580000Y-107202500D02*
X25580000Y-107597500D01*
G75*
G02*
X25407500Y-107770000I-172500J0D01*
G01*
X25062500Y-107770000D01*
G75*
G02*
X24890000Y-107597500I0J172500D01*
G01*
X24890000Y-107202500D01*
G75*
G02*
X25062500Y-107030000I172500J0D01*
G01*
X25407500Y-107030000D01*
G75*
G02*
X25580000Y-107202500I0J-172500D01*
G01*
G37*
%TD*%
%TO.C,C6*%
G36*
G01*
X22610000Y-97152500D02*
X22610000Y-97547500D01*
G75*
G02*
X22437500Y-97720000I-172500J0D01*
G01*
X22092500Y-97720000D01*
G75*
G02*
X21920000Y-97547500I0J172500D01*
G01*
X21920000Y-97152500D01*
G75*
G02*
X22092500Y-96980000I172500J0D01*
G01*
X22437500Y-96980000D01*
G75*
G02*
X22610000Y-97152500I0J-172500D01*
G01*
G37*
G36*
G01*
X23580000Y-97152500D02*
X23580000Y-97547500D01*
G75*
G02*
X23407500Y-97720000I-172500J0D01*
G01*
X23062500Y-97720000D01*
G75*
G02*
X22890000Y-97547500I0J172500D01*
G01*
X22890000Y-97152500D01*
G75*
G02*
X23062500Y-96980000I172500J0D01*
G01*
X23407500Y-96980000D01*
G75*
G02*
X23580000Y-97152500I0J-172500D01*
G01*
G37*
%TD*%
%TO.C,C5*%
G36*
G01*
X24610000Y-97152500D02*
X24610000Y-97547500D01*
G75*
G02*
X24437500Y-97720000I-172500J0D01*
G01*
X24092500Y-97720000D01*
G75*
G02*
X23920000Y-97547500I0J172500D01*
G01*
X23920000Y-97152500D01*
G75*
G02*
X24092500Y-96980000I172500J0D01*
G01*
X24437500Y-96980000D01*
G75*
G02*
X24610000Y-97152500I0J-172500D01*
G01*
G37*
G36*
G01*
X25580000Y-97152500D02*
X25580000Y-97547500D01*
G75*
G02*
X25407500Y-97720000I-172500J0D01*
G01*
X25062500Y-97720000D01*
G75*
G02*
X24890000Y-97547500I0J172500D01*
G01*
X24890000Y-97152500D01*
G75*
G02*
X25062500Y-96980000I172500J0D01*
G01*
X25407500Y-96980000D01*
G75*
G02*
X25580000Y-97152500I0J-172500D01*
G01*
G37*
%TD*%
%TO.C,C4*%
G36*
G01*
X22610000Y-104702500D02*
X22610000Y-105097500D01*
G75*
G02*
X22437500Y-105270000I-172500J0D01*
G01*
X22092500Y-105270000D01*
G75*
G02*
X21920000Y-105097500I0J172500D01*
G01*
X21920000Y-104702500D01*
G75*
G02*
X22092500Y-104530000I172500J0D01*
G01*
X22437500Y-104530000D01*
G75*
G02*
X22610000Y-104702500I0J-172500D01*
G01*
G37*
G36*
G01*
X23580000Y-104702500D02*
X23580000Y-105097500D01*
G75*
G02*
X23407500Y-105270000I-172500J0D01*
G01*
X23062500Y-105270000D01*
G75*
G02*
X22890000Y-105097500I0J172500D01*
G01*
X22890000Y-104702500D01*
G75*
G02*
X23062500Y-104530000I172500J0D01*
G01*
X23407500Y-104530000D01*
G75*
G02*
X23580000Y-104702500I0J-172500D01*
G01*
G37*
%TD*%
%TO.C,C3*%
G36*
G01*
X24610000Y-104702500D02*
X24610000Y-105097500D01*
G75*
G02*
X24437500Y-105270000I-172500J0D01*
G01*
X24092500Y-105270000D01*
G75*
G02*
X23920000Y-105097500I0J172500D01*
G01*
X23920000Y-104702500D01*
G75*
G02*
X24092500Y-104530000I172500J0D01*
G01*
X24437500Y-104530000D01*
G75*
G02*
X24610000Y-104702500I0J-172500D01*
G01*
G37*
G36*
G01*
X25580000Y-104702500D02*
X25580000Y-105097500D01*
G75*
G02*
X25407500Y-105270000I-172500J0D01*
G01*
X25062500Y-105270000D01*
G75*
G02*
X24890000Y-105097500I0J172500D01*
G01*
X24890000Y-104702500D01*
G75*
G02*
X25062500Y-104530000I172500J0D01*
G01*
X25407500Y-104530000D01*
G75*
G02*
X25580000Y-104702500I0J-172500D01*
G01*
G37*
%TD*%
%TO.C,C2*%
G36*
G01*
X22610000Y-94652500D02*
X22610000Y-95047500D01*
G75*
G02*
X22437500Y-95220000I-172500J0D01*
G01*
X22092500Y-95220000D01*
G75*
G02*
X21920000Y-95047500I0J172500D01*
G01*
X21920000Y-94652500D01*
G75*
G02*
X22092500Y-94480000I172500J0D01*
G01*
X22437500Y-94480000D01*
G75*
G02*
X22610000Y-94652500I0J-172500D01*
G01*
G37*
G36*
G01*
X23580000Y-94652500D02*
X23580000Y-95047500D01*
G75*
G02*
X23407500Y-95220000I-172500J0D01*
G01*
X23062500Y-95220000D01*
G75*
G02*
X22890000Y-95047500I0J172500D01*
G01*
X22890000Y-94652500D01*
G75*
G02*
X23062500Y-94480000I172500J0D01*
G01*
X23407500Y-94480000D01*
G75*
G02*
X23580000Y-94652500I0J-172500D01*
G01*
G37*
%TD*%
%TO.C,C1*%
G36*
G01*
X24610000Y-94652500D02*
X24610000Y-95047500D01*
G75*
G02*
X24437500Y-95220000I-172500J0D01*
G01*
X24092500Y-95220000D01*
G75*
G02*
X23920000Y-95047500I0J172500D01*
G01*
X23920000Y-94652500D01*
G75*
G02*
X24092500Y-94480000I172500J0D01*
G01*
X24437500Y-94480000D01*
G75*
G02*
X24610000Y-94652500I0J-172500D01*
G01*
G37*
G36*
G01*
X25580000Y-94652500D02*
X25580000Y-95047500D01*
G75*
G02*
X25407500Y-95220000I-172500J0D01*
G01*
X25062500Y-95220000D01*
G75*
G02*
X24890000Y-95047500I0J172500D01*
G01*
X24890000Y-94652500D01*
G75*
G02*
X25062500Y-94480000I172500J0D01*
G01*
X25407500Y-94480000D01*
G75*
G02*
X25580000Y-94652500I0J-172500D01*
G01*
G37*
%TD*%
M02*
